<svg version="1.1" id="Layer_1" xmlns="http://www.w3.org/2000/svg" xmlns:xlink="http://www.w3.org/1999/xlink" x="0px" y="0px"
	 width="274.924px" height="325.84px" viewBox="0 0 274.924 325.84" enable-background="new 0 0 274.924 325.84"
	 xml:space="preserve">
<g>
	<g>
		<g opacity="0.6">
			<g>
				<defs>
					<rect id="SVGID_1_" y="21.039" width="274.924" height="273.723"/>
				</defs>
				<clipPath id="SVGID_2_">
					<use xlink:href="#SVGID_1_"  overflow="visible"/>
				</clipPath>
				<path clip-path="url(#SVGID_2_)" fill="#2D94D1" d="M274.924,79.795c0-24.576-19.923-44.499-44.5-44.499
					c-12.943,0-24.592,5.53-32.724,14.353c-6.435-16.731-22.648-28.61-41.646-28.61c-24.641,0-44.615,19.975-44.615,44.615
					c0,24.641,19.974,44.616,44.615,44.616c13.004,0,24.704-5.567,32.859-14.443c3.018,7.81,8.167,14.556,14.745,19.517
					c-23.103,1.685-41.325,20.949-41.325,44.482c0,24.641,19.975,44.615,44.615,44.615s44.615-19.974,44.615-44.615
					c0-14.582-6.995-27.527-17.814-35.668C256.771,122.455,274.924,103.251,274.924,79.795"/>
				<path clip-path="url(#SVGID_2_)" fill="#2D94D1" d="M122.62,88.325l-25.132,28.227c-7.431-5.535-16.644-8.812-26.622-8.812
					c-24.641,0-44.616,19.975-44.616,44.615c0,16.792,9.281,31.411,22.99,39.025c-0.023,0-0.046-0.002-0.068-0.002
					C22.015,191.378,0,213.393,0,240.549c0,27.157,22.015,49.173,49.172,49.173c11.145,0,21.421-3.714,29.668-9.964
					c8.172,9.2,20.086,15.005,33.36,15.005c24.641,0,44.615-19.977,44.615-44.616c0-15.328-7.731-28.847-19.505-36.879l22.081-34.75
					l52.277-10.224l8.769-118.09L122.62,88.325z"/>
			</g>
		</g>
		<g opacity="0.8">
			<g>
				<defs>
					<rect id="SVGID_3_" x="2.449" width="271.05" height="310.878"/>
				</defs>
				<clipPath id="SVGID_4_">
					<use xlink:href="#SVGID_3_"  overflow="visible"/>
				</clipPath>
				<path clip-path="url(#SVGID_4_)" fill="#065588" d="M212.178,80.863l-3.829,3.829c-4.614,4.615-11.98,4.733-16.45,0.262
					c-4.471-4.471-4.354-11.836,0.262-16.451l40.24-40.241c5.763-5.762,5.909-14.959,0.327-20.541s-14.778-5.435-20.541,0.328
					l-38.779,38.779c-5.422,5.422-14.075,5.559-19.327,0.307c-5.252-5.251-5.114-13.904,0.308-19.326l2.926-2.925
					c5.658-5.659,6.215-14.739,0.939-20.417c-5.539-5.96-15.014-5.937-20.903-0.048l-96.347,96.347
					c-7.218,7.217-7.4,18.735-0.41,25.726c6.991,6.991,6.808,18.509-0.409,25.725L13.451,178.95
					c-14.344,14.345-14.71,37.238-0.814,51.134c13.895,13.896,36.789,13.531,51.135-0.813l3.084-3.085
					c4.615-4.615,11.98-4.732,16.451-0.262c4.47,4.471,4.352,11.836-0.262,16.451l-40.241,40.24
					c-5.763,5.763-5.909,14.959-0.327,20.541s14.778,5.437,20.541-0.327l38.78-38.778c5.422-5.423,14.074-5.561,19.326-0.309
					c5.252,5.252,5.115,13.904-0.307,19.326l-2.926,2.927c-5.657,5.657-6.215,14.737-0.939,20.415
					c5.538,5.961,15.014,5.938,20.903,0.049l96.348-96.348c7.217-7.217,7.4-18.734,0.409-25.726
					c-6.991-6.99-6.808-18.508,0.409-25.725l27.477-27.477c14.346-14.344,14.71-37.238,0.814-51.133
					C249.416,66.154,226.522,66.519,212.178,80.863"/>
			</g>
		</g>
		<path fill="#CFECFB" d="M52.581,213.036c-10.332,0.669-10.875,1.212-11.544,11.544c-0.669-10.332-1.212-10.875-11.544-11.544
			c10.332-0.669,10.875-1.212,11.544-11.544C41.706,211.824,42.249,212.367,52.581,213.036"/>
		<path fill="#2D94D1" d="M35.249,196.605c-5.899,0.382-6.209,0.691-6.591,6.592c-0.383-5.901-0.692-6.21-6.592-6.592
			c5.9-0.382,6.209-0.692,6.591-6.592C29.04,195.914,29.35,196.224,35.249,196.605"/>
		<path fill="#2D94D1" d="M63.228,188.503c-8.177,0.529-8.606,0.959-9.136,9.135c-0.529-8.176-0.959-8.606-9.135-9.135
			c8.176-0.53,8.606-0.959,9.135-9.136C54.622,187.544,55.051,187.973,63.228,188.503"/>
		<path fill="#2D94D1" d="M41.262,183.101c0,1.119-0.906,2.025-2.025,2.025s-2.026-0.906-2.026-2.025s0.907-2.025,2.026-2.025
			S41.262,181.981,41.262,183.101"/>
		<path fill="#2D94D1" d="M31.358,222.039c0,1.119-0.906,2.026-2.025,2.026c-1.12,0-2.026-0.907-2.026-2.026
			c0-1.118,0.906-2.025,2.026-2.025C30.453,220.014,31.358,220.921,31.358,222.039"/>
		<path fill="#2D94D1" d="M56.793,205.384c0,1.118-0.907,2.025-2.026,2.025s-2.026-0.907-2.026-2.025
			c0-1.119,0.907-2.026,2.026-2.026S56.793,204.265,56.793,205.384"/>
		<path fill="#2D94D1" d="M246.649,120.286c-10.332,0.67-10.874,1.212-11.543,11.544c-0.67-10.332-1.212-10.874-11.544-11.544
			c10.332-0.669,10.874-1.212,11.544-11.543C235.775,119.074,236.317,119.617,246.649,120.286"/>
		<path fill="#CFECFB" d="M229.318,103.855c-5.898,0.382-6.21,0.692-6.592,6.592c-0.382-5.9-0.691-6.21-6.592-6.592
			c5.9-0.382,6.21-0.691,6.592-6.592C223.108,103.165,223.42,103.474,229.318,103.855"/>
		<path fill="#2D94D1" d="M257.296,95.753c-8.177,0.529-8.604,0.959-9.135,9.136c-0.53-8.177-0.959-8.607-9.136-9.136
			c8.177-0.53,8.605-0.959,9.135-9.136C248.691,94.794,249.119,95.223,257.296,95.753"/>
		<path fill="#2D94D1" d="M235.331,90.351c0,1.119-0.907,2.026-2.024,2.026c-1.12,0-2.027-0.907-2.027-2.026
			c0-1.118,0.907-2.025,2.027-2.025C234.424,88.326,235.331,89.232,235.331,90.351"/>
		<path fill="#2D94D1" d="M225.428,129.29c0,1.118-0.907,2.025-2.026,2.025c-1.118,0-2.025-0.907-2.025-2.025
			c0-1.119,0.907-2.026,2.025-2.026C224.521,127.264,225.428,128.171,225.428,129.29"/>
		<path fill="#CFECFB" d="M250.861,112.634c0,1.119-0.906,2.025-2.025,2.025s-2.025-0.906-2.025-2.025s0.906-2.025,2.025-2.025
			S250.861,111.515,250.861,112.634"/>
		<path fill="#CFECFB" d="M131.926,63.45c-8.329,0.539-8.767,0.977-9.306,9.306c-0.54-8.329-0.977-8.767-9.306-9.306
			c8.329-0.54,8.766-0.978,9.306-9.307C123.159,62.472,123.597,62.91,131.926,63.45"/>
		<path fill="#2D94D1" d="M117.954,50.204c-4.757,0.308-5.006,0.558-5.314,5.313c-0.308-4.755-0.558-5.005-5.314-5.313
			c4.756-0.309,5.006-0.559,5.314-5.314C112.948,49.645,113.197,49.895,117.954,50.204"/>
		<path fill="#2D94D1" d="M140.509,43.672c-6.592,0.427-6.937,0.772-7.364,7.364c-0.427-6.592-0.774-6.937-7.365-7.364
			c6.591-0.428,6.938-0.773,7.365-7.365C133.572,42.899,133.917,43.244,140.509,43.672"/>
		<path fill="#CFECFB" d="M122.802,39.316c0,0.902-0.731,1.633-1.634,1.633c-0.901,0-1.633-0.731-1.633-1.633
			c0-0.901,0.732-1.633,1.633-1.633C122.071,37.684,122.802,38.416,122.802,39.316"/>
		<path fill="#2D94D1" d="M114.817,70.708c0,0.902-0.731,1.633-1.633,1.633c-0.902,0-1.634-0.731-1.634-1.633
			c0-0.901,0.732-1.633,1.634-1.633C114.086,69.075,114.817,69.807,114.817,70.708"/>
		<path fill="#2D94D1" d="M135.321,57.28c0,0.902-0.73,1.634-1.633,1.634c-0.901,0-1.633-0.732-1.633-1.634
			c0-0.901,0.732-1.633,1.633-1.633C134.591,55.647,135.321,56.379,135.321,57.28"/>
		<path fill="#2D94D1" d="M220.437,212.148c-8.329,0.54-8.767,0.978-9.307,9.307c-0.539-8.329-0.977-8.767-9.306-9.307
			c8.329-0.539,8.767-0.977,9.306-9.307C211.67,211.172,212.107,211.609,220.437,212.148"/>
		<path fill="#2D94D1" d="M206.464,198.902c-4.756,0.308-5.006,0.558-5.312,5.313c-0.31-4.755-0.56-5.005-5.315-5.313
			c4.756-0.308,5.006-0.558,5.315-5.313C201.458,198.344,201.708,198.594,206.464,198.902"/>
		<path fill="#2D94D1" d="M229.02,192.37c-6.592,0.427-6.938,0.773-7.365,7.365c-0.427-6.592-0.773-6.938-7.363-7.365
			c6.59-0.427,6.937-0.773,7.363-7.365C222.081,191.597,222.428,191.943,229.02,192.37"/>
		<path fill="#2D94D1" d="M211.312,188.015c0,0.902-0.73,1.634-1.633,1.634s-1.634-0.732-1.634-1.634
			c0-0.901,0.731-1.633,1.634-1.633S211.312,187.114,211.312,188.015"/>
		<path fill="#CFECFB" d="M203.327,219.406c0,0.902-0.729,1.634-1.633,1.634c-0.901,0-1.633-0.731-1.633-1.634
			c0-0.901,0.731-1.633,1.633-1.633C202.598,217.773,203.327,218.505,203.327,219.406"/>
		<path fill="#2D94D1" d="M223.832,205.979c0,0.901-0.731,1.633-1.633,1.633c-0.902,0-1.634-0.732-1.634-1.633
			c0-0.902,0.731-1.634,1.634-1.634C223.101,204.346,223.832,205.078,223.832,205.979"/>
		<path fill="#2D94D1" d="M69.214,121.751c-8.329,0.54-8.767,0.977-9.307,9.307c-0.539-8.33-0.976-8.767-9.305-9.307
			c8.329-0.539,8.766-0.977,9.305-9.307C60.447,120.774,60.885,121.212,69.214,121.751"/>
		<path fill="#2D94D1" d="M55.241,108.505c-4.756,0.308-5.006,0.558-5.313,5.313c-0.309-4.755-0.558-5.005-5.315-5.313
			c4.757-0.308,5.006-0.558,5.315-5.313C50.235,107.947,50.485,108.197,55.241,108.505"/>
		<path fill="#2D94D1" d="M60.089,97.617c0,0.902-0.731,1.634-1.633,1.634c-0.902,0-1.633-0.732-1.633-1.634
			c0-0.901,0.731-1.633,1.633-1.633C59.358,95.984,60.089,96.716,60.089,97.617"/>
		<path fill="#CFECFB" d="M52.105,129.009c0,0.902-0.731,1.634-1.634,1.634c-0.901,0-1.633-0.732-1.633-1.634
			c0-0.901,0.732-1.633,1.633-1.633C51.375,127.376,52.105,128.108,52.105,129.009"/>
		<path fill="#2D94D1" d="M206.672,31.717c-4.756,0.308-5.006,0.558-5.312,5.313c-0.31-4.755-0.559-5.005-5.314-5.313
			c4.756-0.309,5.005-0.558,5.314-5.314C201.666,31.159,201.916,31.408,206.672,31.717"/>
		<path fill="#CFECFB" d="M229.228,20.144c-6.592,0.427-6.937,0.773-7.365,7.365c-0.427-6.592-0.772-6.938-7.363-7.365
			c6.591-0.427,6.937-0.773,7.363-7.365C222.291,19.371,222.636,19.717,229.228,20.144"/>
		<path fill="#2D94D1" d="M210.21,20.753c0,0.902-0.73,1.633-1.634,1.633c-0.901,0-1.633-0.731-1.633-1.633
			c0-0.901,0.731-1.633,1.633-1.633C209.479,19.12,210.21,19.852,210.21,20.753"/>
		<path fill="#CFECFB" d="M213.953,32.562c0,0.902-0.729,1.634-1.633,1.634c-0.902,0-1.633-0.732-1.633-1.634
			c0-0.901,0.73-1.633,1.633-1.633C213.224,30.929,213.953,31.661,213.953,32.562"/>
		<path fill="#FAAC2B" d="M99.36,217.898c7.899,6.586,17.284,11.146,27.283,13.363c-0.451-0.999-0.675-2.102-0.633-3.245
			l0.124-3.378c0.094-2.562,1.487-4.811,3.498-6.091c-14.044-2.3-26.901-8.956-36.987-19.316c-0.07-0.072-0.139-0.146-0.208-0.219
			l-0.034,0.224C91.335,206.278,94.001,213.43,99.36,217.898"/>
		<path fill="#FAAC2B" d="M140.7,219.386l-7.323-0.384c-2.8,0-5.112,2.719-5.217,5.59l-0.124,3.379
			c-0.05,1.357,0.419,2.638,1.319,3.606c0.04,0.043,0.084,0.08,0.125,0.122c3.361,2.042,7.457,1.255,11.256,1.255
			c16.026,0,31.7-5.788,43.521-16.414c5.147-4.628,7.273-11.814,6.233-18.66v-0.001l-0.07-0.461
			c-0.518,0.569-1.042,1.133-1.582,1.688c-12.694,13.039-29.773,20.219-48.092,20.219h-0.008v0.061H140.7z"/>
		<path fill="#025588" d="M126.644,231.262c-9.999-2.219-19.384-6.777-27.283-13.363c-5.36-4.469-8.026-11.62-6.957-18.662
			l0.034-0.224c-0.751-0.778-1.482-1.569-2.19-2.376l-0.336,2.222c-1.2,7.908,1.802,15.945,7.835,20.975
			c9.077,7.568,20.038,12.558,31.661,14.534c-0.551-0.327-1.063-0.732-1.515-1.219C127.37,232.587,126.955,231.949,126.644,231.262"
			/>
		<path fill="#025588" d="M190.409,197.544l0.07,0.461v0.001c1.041,6.846-1.411,13.696-6.559,18.323
			c-11.821,10.627-27.157,16.479-43.183,16.479c-3.8,0-7.569-0.333-11.268-0.983c0.899,0.9,2.086,1.399,3.369,1.399h7.309v1.043
			v1.043h-0.965c0.518,0.012,1.037,0.019,1.555,0.019c16.649,0,32.583-6.081,44.867-17.124c5.781-5.197,8.534-12.889,7.367-20.578
			v0.001l-0.395-2.586C191.878,195.89,191.155,196.724,190.409,197.544"/>
		<path fill="#FAAC2B" d="M197.068,117.021h3.699c2.847,0,5.162-2.315,5.162-5.162V96.98c0-2.846-2.315-5.162-5.162-5.162h-8.83
			c-2.847,0-5.162,2.316-5.162,5.162c0,0.557-0.452,1.008-1.009,1.008s-1.008-0.451-1.008-1.008c0-2.455,1.239-4.623,3.124-5.919
			H173.24C181.79,98.281,190.528,106.736,197.068,117.021 M197.109,97.278c1.531,0,2.771,1.241,2.771,2.772
			c0,1.53-1.24,2.771-2.771,2.771c-1.53,0-2.771-1.241-2.771-2.771C194.339,98.519,195.579,97.278,197.109,97.278 M197.109,105.328
			c1.531,0,2.771,1.241,2.771,2.771c0,1.531-1.24,2.772-2.771,2.772c-1.53,0-2.771-1.241-2.771-2.772
			C194.339,106.569,195.579,105.328,197.109,105.328"/>
		<path fill="none" stroke="#005588" stroke-miterlimit="10" d="M197.068,117.021h3.699c2.847,0,5.162-2.315,5.162-5.162V96.98
			c0-2.846-2.315-5.162-5.162-5.162h-8.83c-2.847,0-5.162,2.316-5.162,5.162c0,0.557-0.452,1.008-1.009,1.008
			s-1.008-0.451-1.008-1.008c0-2.455,1.239-4.623,3.124-5.919H173.24C181.79,98.281,190.528,106.736,197.068,117.021z
			 M197.109,97.278c1.531,0,2.771,1.241,2.771,2.772c0,1.53-1.24,2.771-2.771,2.771c-1.53,0-2.771-1.241-2.771-2.771
			C194.339,98.519,195.579,97.278,197.109,97.278z M197.109,105.328c1.531,0,2.771,1.241,2.771,2.771
			c0,1.531-1.24,2.772-2.771,2.772c-1.53,0-2.771-1.241-2.771-2.772C194.339,106.569,195.579,105.328,197.109,105.328z"/>
		<path fill="#025588" d="M184.759,96.98c0,0.557,0.451,1.008,1.008,1.008s1.01-0.451,1.01-1.008c0-2.847,2.314-5.162,5.161-5.162
			h8.83c2.847,0,5.162,2.315,5.162,5.162v14.879c0,2.847-2.315,5.162-5.162,5.162h-3.698c0.422,0.664,0.834,1.337,1.236,2.017h2.462
			c3.958,0,7.179-3.221,7.179-7.179V96.98c0-3.958-3.221-7.179-7.179-7.179h-8.83c-1.504,0-2.899,0.467-4.055,1.26
			C185.998,92.357,184.759,94.525,184.759,96.98"/>
		<path fill="#065588" d="M197.109,102.821c1.531,0,2.771-1.241,2.771-2.771c0-1.531-1.24-2.772-2.771-2.772
			c-1.53,0-2.771,1.241-2.771,2.772C194.339,101.58,195.579,102.821,197.109,102.821"/>
		<path fill="#065588" d="M197.109,110.871c1.531,0,2.771-1.241,2.771-2.771c0-1.531-1.24-2.772-2.771-2.772
			c-1.53,0-2.771,1.241-2.771,2.772C194.339,109.63,195.579,110.871,197.109,110.871"/>
		<path fill="#FAAC2B" d="M95.538,96.98c0,0.557-0.451,1.008-1.008,1.008c-0.557,0-1.008-0.451-1.008-1.008
			c0-2.847-2.316-5.162-5.163-5.162h-8.83c-2.847,0-5.162,2.315-5.162,5.162v14.879c0,2.847,2.315,5.162,5.162,5.162h4.875
			c6.541-10.285,15.279-18.74,23.829-25.96H92.414C94.297,92.357,95.538,94.525,95.538,96.98 M83.692,110.871
			c-1.53,0-2.771-1.241-2.771-2.772c0-1.53,1.241-2.771,2.771-2.771c1.531,0,2.771,1.241,2.771,2.771
			C86.463,109.63,85.224,110.871,83.692,110.871 M83.692,102.821c-1.53,0-2.771-1.241-2.771-2.771c0-1.531,1.241-2.772,2.771-2.772
			c1.531,0,2.771,1.241,2.771,2.772C86.463,101.58,85.224,102.821,83.692,102.821"/>
		<path fill="none" stroke="#005588" stroke-miterlimit="10" d="M95.538,96.98c0,0.557-0.451,1.008-1.008,1.008
			c-0.557,0-1.008-0.451-1.008-1.008c0-2.847-2.316-5.162-5.163-5.162h-8.83c-2.847,0-5.162,2.315-5.162,5.162v14.879
			c0,2.847,2.315,5.162,5.162,5.162h4.875c6.541-10.285,15.279-18.74,23.829-25.96H92.414C94.297,92.357,95.538,94.525,95.538,96.98
			z M83.692,110.871c-1.53,0-2.771-1.241-2.771-2.772c0-1.53,1.241-2.771,2.771-2.771c1.531,0,2.771,1.241,2.771,2.771
			C86.463,109.63,85.224,110.871,83.692,110.871z M83.692,102.821c-1.53,0-2.771-1.241-2.771-2.771c0-1.531,1.241-2.772,2.771-2.772
			c1.531,0,2.771,1.241,2.771,2.772C86.463,101.58,85.224,102.821,83.692,102.821z"/>
		<path fill="#025588" d="M79.528,117.021c-2.847,0-5.162-2.315-5.162-5.162V96.98c0-2.847,2.315-5.162,5.162-5.162h8.83
			c2.847,0,5.163,2.315,5.163,5.162c0,0.557,0.451,1.008,1.008,1.008c0.557,0,1.008-0.451,1.008-1.008
			c0-2.455-1.239-4.623-3.124-5.919c-1.155-0.793-2.551-1.26-4.055-1.26h-8.83c-3.958,0-7.179,3.221-7.179,7.179v14.879
			c0,3.958,3.221,7.179,7.179,7.179h3.638c0.403-0.68,0.815-1.353,1.237-2.017H79.528z"/>
		<path fill="none" stroke="#005588" stroke-miterlimit="10" d="M79.528,117.021c-2.847,0-5.162-2.315-5.162-5.162V96.98
			c0-2.847,2.315-5.162,5.162-5.162h8.83c2.847,0,5.163,2.315,5.163,5.162c0,0.557,0.451,1.008,1.008,1.008
			c0.557,0,1.008-0.451,1.008-1.008c0-2.455-1.239-4.623-3.124-5.919c-1.155-0.793-2.551-1.26-4.055-1.26h-8.83
			c-3.958,0-7.179,3.221-7.179,7.179v14.879c0,3.958,3.221,7.179,7.179,7.179h3.638c0.403-0.68,0.815-1.353,1.237-2.017H79.528z"/>
		<path fill="#FAAC2B" d="M74.283,150.974c0.123-4.587,0.709-8.923,1.673-13.033h-0.103c-3.326,0-6.049,2.722-6.049,6.049v28.48
			c0,3.327,2.723,6.049,6.049,6.049h3.542C75.792,169.929,74.025,160.59,74.283,150.974"/>
		<path fill="none" stroke="#005588" stroke-miterlimit="10" d="M74.283,150.974c0.123-4.587,0.709-8.923,1.673-13.033h-0.103
			c-3.326,0-6.049,2.722-6.049,6.049v28.48c0,3.327,2.723,6.049,6.049,6.049h3.542C75.792,169.929,74.025,160.59,74.283,150.974z"/>
		<path fill="#FAAC2B" d="M205.618,137.94h-0.103c0.964,4.11,1.551,8.446,1.674,13.033c0.257,9.616-1.509,18.955-5.112,27.545h3.541
			c3.327,0,6.049-2.722,6.049-6.049v-28.48C211.667,140.664,208.945,137.94,205.618,137.94"/>
		<path fill="none" stroke="#005588" stroke-miterlimit="10" d="M205.618,137.94h-0.103c0.964,4.11,1.551,8.446,1.674,13.033
			c0.257,9.616-1.509,18.955-5.112,27.545h3.541c3.327,0,6.049-2.722,6.049-6.049v-28.48
			C211.667,140.664,208.945,137.94,205.618,137.94z"/>
		<path fill="#FAAC2B" d="M187.021,197.473c12.173-12.503,18.619-28.992,18.152-46.432c-0.384-14.384-5.428-27.452-15.419-39.949
			c-8.661-10.836-19.473-19.362-29.01-26.885c-9.048-7.134-16.861-13.296-19.886-19.351c-0.024-0.048-0.112-0.049-0.123-0.049
			c-0.01,0-0.1,0.001-0.123,0.049c-3.024,6.055-10.838,12.217-19.885,19.351c-9.538,7.523-20.35,16.049-29.012,26.885
			c-9.989,12.497-15.033,25.565-15.418,39.949c-0.468,17.44,5.98,33.929,18.153,46.433c12.215,12.547,28.653,19.457,46.285,19.457
			S174.806,210.021,187.021,197.473 M168.438,103.819c-0.263,0.712-0.937,1.152-1.654,1.152c-0.202,0-0.41-0.035-0.611-0.109
			c-2.675-0.991-5.464-1.829-8.285-2.494c-0.949-0.224-1.537-1.174-1.312-2.123c0.224-0.948,1.174-1.535,2.121-1.312
			c2.963,0.698,5.891,1.579,8.7,2.619C168.31,101.89,168.776,102.905,168.438,103.819 M152.991,99.58
			c-0.12,0.884-0.878,1.526-1.745,1.526c-0.081,0-0.161-0.006-0.243-0.017c-6.78-0.929-13.888-0.93-20.669-0.005
			c-0.962,0.132-1.854-0.544-1.986-1.509c-0.133-0.965,0.544-1.855,1.509-1.987c7.097-0.969,14.528-0.968,21.626,0.005
			C152.448,97.725,153.123,98.616,152.991,99.58 M121.45,102.86c-1.941,0.515-3.87,1.117-5.735,1.788
			c-0.198,0.071-0.399,0.104-0.597,0.104c-0.723,0-1.402-0.448-1.661-1.168c-0.329-0.917,0.147-1.926,1.064-2.257
			c1.959-0.705,3.985-1.335,6.022-1.877c0.943-0.25,1.909,0.31,2.159,1.252S122.391,102.61,121.45,102.86 M79.977,167.515
			c-1.285-4.027-1.966-8.251-1.966-12.602c0-1.991,0.142-3.952,0.418-5.882c3.62-25.149,30.134-44.671,62.31-44.671
			c32.17,0,58.684,19.522,62.304,44.671c0.276,1.93,0.418,3.891,0.418,5.882c0,4.351-0.681,8.575-1.965,12.602
			c-6.947,21.821-31.516,37.952-60.757,37.952C111.492,205.467,86.923,189.336,79.977,167.515"/>
		<path fill="#025588" d="M207.693,150.982c-0.123-4.59-0.709-8.93-1.673-13.043c-1.622-6.922-4.321-13.195-7.715-18.918
			c-0.403-0.68-0.814-1.353-1.237-2.018c-6.54-10.294-15.278-18.755-23.828-25.98c-3.748-3.167-7.461-6.098-10.935-8.84
			c-8.811-6.953-16.418-12.958-19.192-18.514c-0.444-0.89-1.355-1.444-2.377-1.444c-1.022,0-1.932,0.554-2.378,1.444
			c-2.772,5.556-10.381,11.561-19.19,18.514c-3.475,2.742-7.188,5.673-10.936,8.84c-8.55,7.225-17.288,15.686-23.829,25.98
			c-0.422,0.665-0.834,1.338-1.237,2.018c-3.394,5.723-6.092,11.996-7.714,18.918c-0.964,4.113-1.55,8.453-1.673,13.043
			c-0.258,9.624,1.508,18.971,5.112,27.567c2.746,6.549,6.559,12.662,11.357,18.132c0.708,0.807,1.438,1.6,2.189,2.377
			c0.07,0.073,0.138,0.147,0.208,0.22c10.086,10.368,22.943,17.03,36.988,19.332c1.111-0.708,2.408-1.124,3.786-1.124h7.308v2.027
			h0.009c18.318,0,35.396-7.186,48.091-20.235c0.54-0.555,1.064-1.12,1.582-1.69c0.746-0.82,1.469-1.655,2.169-2.505
			c4.165-5.053,7.521-10.615,10.003-16.534C206.186,169.953,207.951,160.606,207.693,150.982 M94.451,197.474
			c-12.173-12.504-18.62-28.993-18.152-46.433c0.384-14.384,5.428-27.452,15.418-39.949c8.662-10.836,19.473-19.362,29.011-26.885
			c9.047-7.134,16.86-13.296,19.885-19.351c0.024-0.048,0.113-0.049,0.123-0.049s0.099,0.001,0.123,0.049
			c3.024,6.055,10.838,12.217,19.885,19.351c9.538,7.523,20.351,16.049,29.011,26.885c9.99,12.497,15.034,25.565,15.419,39.949
			c0.467,17.44-5.979,33.929-18.152,46.432c-12.216,12.548-28.653,19.458-46.285,19.458S106.667,210.021,94.451,197.474"/>
		<path fill="#065588" d="M203.653,149.03c-3.638-25.148-30.281-44.671-62.607-44.671c-32.333,0-58.978,19.523-62.614,44.671
			c-0.279,1.931-0.421,3.892-0.421,5.883c0,4.349,0.684,8.574,1.976,12.601c6.98,21.822,31.669,37.953,61.06,37.953
			c29.383,0,54.071-16.131,61.052-37.953c1.292-4.027,1.976-8.252,1.976-12.601C204.073,152.922,203.932,150.961,203.653,149.03"/>
		<path fill="#065588" d="M199.14,149.704c-3.422-22.267-28.491-39.553-58.909-39.553c-30.422,0-55.491,17.286-58.913,39.553
			c-0.263,1.71-0.396,3.446-0.396,5.209c0,3.852,0.644,7.592,1.859,11.158c6.567,19.321,29.797,33.604,57.45,33.604
			c27.648,0,50.879-14.283,57.446-33.604c1.215-3.566,1.859-7.306,1.859-11.158C199.536,153.15,199.402,151.414,199.14,149.704"/>
		<path fill="#065588" d="M120.543,99.449c-2.037,0.542-4.063,1.173-6.022,1.878c-0.917,0.33-1.393,1.34-1.064,2.257
			c0.259,0.719,0.938,1.168,1.66,1.168c0.198,0,0.4-0.033,0.598-0.105c1.864-0.671,3.794-1.272,5.734-1.788
			c0.942-0.25,1.502-1.216,1.252-2.158C122.451,99.76,121.485,99.199,120.543,99.449"/>
		<path fill="#065588" d="M129.856,97.588c-0.965,0.132-1.642,1.021-1.509,1.986c0.132,0.966,1.024,1.642,1.987,1.51
			c6.78-0.926,13.888-0.925,20.668,0.005c0.083,0.011,0.163,0.017,0.242,0.017c0.868,0,1.625-0.642,1.746-1.526
			c0.133-0.965-0.543-1.855-1.509-1.987C144.385,96.62,136.954,96.619,129.856,97.588"/>
		<path fill="#065588" d="M158.695,98.933c-0.947-0.223-1.896,0.364-2.121,1.312c-0.225,0.949,0.363,1.899,1.312,2.123
			c2.821,0.665,5.609,1.503,8.286,2.494c0.2,0.074,0.407,0.109,0.61,0.109c0.718,0,1.392-0.44,1.654-1.152
			c0.339-0.914-0.128-1.929-1.042-2.267C164.587,100.512,161.658,99.631,158.695,98.933"/>
		<path fill="#2D94D1" d="M141.173,197.418c23.066-0.171,42.758-10.601,48.681-29.819c1.25-4.042,1.904-8.309,1.872-12.712
			c-0.015-2.012-0.171-3.986-0.462-5.924c-3.367-22.532-24.727-39.797-50.43-39.606c-25.707,0.189-46.803,17.766-49.838,40.345
			c-0.263,1.943-0.389,3.919-0.375,5.931c0.033,4.403,0.75,8.659,2.055,12.683C98.881,187.445,118.108,197.588,141.173,197.418
			 M182.277,171.672c-1.864,0.731-3.971-0.189-4.7-2.054c-0.731-1.866,0.188-3.97,2.054-4.702c1.865-0.73,3.97,0.19,4.701,2.055
			C185.062,168.836,184.143,170.941,182.277,171.672 M186.644,144.16c0.271,1.007-0.292,2.052-1.272,2.401
			c-1.048,0.372-2.211-0.171-2.567-1.223c-5.601-16.56-23.781-28.423-45.2-28.503c-0.864-0.004-1.56-0.715-1.56-1.579
			c0-0.841,0.657-1.536,1.495-1.582c0.14-0.007,0.278-0.014,0.419-0.02C161.494,112.596,181.704,125.783,186.644,144.16
			 M113.965,119.466c3.204-0.48,6.192,1.727,6.672,4.932c0.481,3.204-1.727,6.191-4.932,6.672c-3.204,0.48-6.191-1.728-6.671-4.932
			C108.553,122.934,110.761,119.947,113.965,119.466 M107.841,132.841c0.298,1.982-1.067,3.828-3.049,4.125
			c-1.981,0.298-3.829-1.068-4.126-3.049c-0.296-1.981,1.069-3.829,3.05-4.126C105.698,129.494,107.544,130.86,107.841,132.841
			 M113.475,170.972c-0.258-0.081-0.512-0.17-0.763-0.264c-1.221-0.458-2.368-1.066-3.42-1.801
			c-0.194-0.137-0.386-0.277-0.575-0.422c-0.315-0.243-0.623-0.497-0.919-0.763c-0.228-0.206-0.449-0.418-0.665-0.637
			c-0.232-0.236-0.455-0.48-0.672-0.73c-0.212-0.245-0.418-0.495-0.614-0.752c-1.081-1.418-1.924-3.027-2.465-4.769
			c-0.094-0.302-0.176-0.61-0.251-0.92c-0.153-0.631-0.268-1.277-0.342-1.936c-0.037-0.334-0.064-0.67-0.08-1.009
			c-0.01-0.236-0.017-0.474-0.017-0.713c0-0.424,0.021-0.842,0.054-1.256c0.029-0.351,0.065-0.7,0.117-1.044
			c0.094-0.632,0.23-1.251,0.399-1.856c0.062-0.219,0.127-0.437,0.197-0.651c0.142-0.434,0.301-0.861,0.48-1.277
			c0.061-0.142,0.126-0.283,0.191-0.424c1.708-3.665,4.812-6.547,8.629-7.963c0.332-0.123,0.67-0.232,1.012-0.333
			c0.632-0.185,1.279-0.334,1.941-0.437c0.031-0.005,0.061-0.01,0.09-0.015c0.757-0.113,1.53-0.173,2.319-0.173
			c0.988,0,2.067,0.21,3.203,0.578c0.317,0.102,0.639,0.216,0.965,0.343c1.546,0.601,3.173,1.457,4.803,2.46
			c0.283,0.174,0.567,0.353,0.85,0.535c0.333,0.214,0.665,0.433,0.995,0.657c0.257,0.174,0.513,0.35,0.767,0.529
			c1.986,1.388,3.909,2.903,5.619,4.336c0.63,0.528,1.326,0.932,2.055,1.222c0.337,0.134,0.68,0.244,1.028,0.328
			c0.696,0.167,1.41,0.231,2.121,0.197c0.2-0.01,0.399-0.028,0.598-0.054c0.716-0.091,1.42-0.284,2.091-0.582
			c0.123-0.055,0.244-0.117,0.365-0.178c0.397-0.204,0.78-0.445,1.146-0.723c0.091-0.07,0.186-0.136,0.273-0.21
			c0.161-0.134,0.322-0.269,0.485-0.404c0.256-0.211,0.517-0.425,0.781-0.639c0.259-0.21,0.521-0.42,0.787-0.631
			c0.349-0.276,0.703-0.553,1.062-0.827c0.088-0.068,0.179-0.137,0.268-0.204c1.628-1.236,3.341-2.438,5.049-3.476
			c0.171-0.103,0.342-0.206,0.513-0.305c0.31-0.183,0.618-0.361,0.927-0.53c0.258-0.142,0.515-0.278,0.771-0.411
			c1.191-0.615,2.359-1.121,3.474-1.471c0.286-0.09,0.568-0.169,0.848-0.239c0.783-0.193,1.534-0.301,2.239-0.301
			c1.002,0,1.981,0.099,2.931,0.282c0.27,0.051,0.537,0.11,0.802,0.176c1.199,0.297,2.343,0.737,3.413,1.297
			c0.312,0.163,0.618,0.335,0.916,0.519c0.374,0.229,0.736,0.475,1.088,0.733c0.103,0.076,0.203,0.155,0.304,0.234
			c1.054,0.817,1.998,1.767,2.808,2.827c0.055,0.071,0.108,0.141,0.161,0.213c0.271,0.368,0.528,0.747,0.768,1.139
			c0.188,0.309,0.361,0.627,0.527,0.95c0.553,1.071,0.983,2.214,1.274,3.413c0.082,0.341,0.152,0.685,0.212,1.034
			c0.123,0.72,0.195,1.456,0.215,2.206c0.001,0.027,0.001,0.055,0.002,0.083c0.002,0.107,0.008,0.215,0.008,0.323
			c0,0.808-0.062,1.602-0.183,2.376c-0.035,0.236-0.077,0.47-0.125,0.702c-0.149,0.738-0.353,1.455-0.603,2.151
			c-0.047,0.131-0.099,0.258-0.148,0.387c-0.137,0.349-0.281,0.692-0.441,1.027c-0.154,0.323-0.322,0.637-0.497,0.947
			c-1.565,2.763-3.955,4.995-6.838,6.36c-0.321,0.153-0.65,0.292-0.984,0.422c-1.164,0.455-2.396,0.772-3.678,0.932
			c-0.161,0.02-0.322,0.04-0.485,0.055c-0.477,0.044-0.958,0.07-1.445,0.07c-0.207,0-0.421-0.013-0.637-0.03
			c-0.276-0.024-0.558-0.059-0.846-0.11c-1.109-0.195-2.299-0.59-3.529-1.13c-0.272-0.119-0.548-0.247-0.825-0.38
			c-0.272-0.131-0.547-0.269-0.822-0.413c-0.264-0.137-0.528-0.28-0.794-0.427c-1.616-0.899-3.257-1.976-4.848-3.119
			c-0.23-0.166-0.461-0.334-0.69-0.502c-0.286-0.212-0.569-0.425-0.851-0.639c-0.234-0.179-0.468-0.358-0.698-0.536
			c-0.304-0.237-0.603-0.473-0.898-0.709c-0.241-0.193-0.479-0.385-0.715-0.576c-0.312-0.255-0.619-0.508-0.92-0.759
			c-0.043-0.036-0.087-0.072-0.13-0.109c-0.158-0.132-0.321-0.254-0.487-0.373c-0.959-0.679-2.038-1.109-3.148-1.289
			c-0.373-0.06-0.748-0.092-1.125-0.096c-0.751-0.008-1.501,0.1-2.228,0.316c-0.078,0.023-0.156,0.047-0.233,0.072
			c-0.354,0.118-0.699,0.265-1.035,0.438c-0.312,0.158-0.617,0.335-0.908,0.54c-0.175,0.123-0.347,0.253-0.513,0.392
			c-0.165,0.139-0.332,0.278-0.501,0.417c-0.076,0.063-0.152,0.125-0.228,0.187c-1.944,1.6-4.122,3.263-6.332,4.711
			c-0.281,0.184-0.563,0.364-0.846,0.541c-0.287,0.181-0.575,0.356-0.862,0.527c-0.274,0.164-0.548,0.322-0.821,0.476
			c-1.172,0.659-2.33,1.226-3.446,1.66c-0.212,0.082-0.423,0.161-0.632,0.233c-0.45,0.156-0.889,0.286-1.32,0.391
			c-0.065,0.016-0.13,0.032-0.194,0.047c-0.705,0.16-1.382,0.249-2.02,0.249c-0.058,0-0.115-0.004-0.171-0.005
			c-0.258-0.003-0.515-0.011-0.77-0.026C115.896,171.576,114.655,171.344,113.475,170.972"/>
		<path fill="#2D94D1" d="M189.921,167.156"/>
		<path fill="none" stroke="#FAAC28" stroke-width="3" stroke-miterlimit="10" d="M189.921,167.156"/>
		<path fill="#CFECFB" d="M100.737,133.917c0.297,1.98,2.145,3.347,4.125,3.049c1.981-0.297,3.347-2.144,3.05-4.125
			c-0.297-1.982-2.145-3.347-4.125-3.05C101.806,130.088,100.44,131.936,100.737,133.917"/>
		<path fill="#065588" d="M83.692,97.278c-1.53,0-2.771,1.241-2.771,2.771c0,1.531,1.241,2.772,2.771,2.772
			c1.531,0,2.771-1.241,2.771-2.772C86.463,98.52,85.224,97.278,83.692,97.278"/>
		<path fill="#065588" d="M83.692,105.328c-1.53,0-2.771,1.241-2.771,2.771c0,1.531,1.241,2.772,2.771,2.772
			c1.531,0,2.771-1.241,2.771-2.772C86.463,106.569,85.224,105.328,83.692,105.328"/>
		<path fill="#025588" d="M140.392,234.026v-0.969l-7.309-0.075c-1.282,0-2.469-0.498-3.369-1.398
			c-0.042-0.041-0.085-0.078-0.125-0.12c-0.901-0.97-1.37-2.25-1.319-3.608l0.124-3.378c0.105-2.871,2.417-5.59,5.217-5.59
			l7.323,0.384h0.038v-0.061v-2.026h-7.309c-1.377,0-2.675,0.416-3.787,1.123c-2.01,1.281-3.403,3.529-3.498,6.091l-0.124,3.378
			c-0.042,1.145,0.095,2.312,0.546,3.312c0.311,0.687,0.709,1.335,1.233,1.897c0.453,0.486,1.012,0.886,1.564,1.213
			c1.026,0.611,2.254,0.871,3.486,0.871h6.345h0.964V234.026z"/>
		<path fill="none" stroke="#005588" stroke-width="0.33" stroke-miterlimit="10" d="M140.392,234.026v-0.969l-7.309-0.075
			c-1.282,0-2.469-0.498-3.369-1.398c-0.042-0.041-0.085-0.078-0.125-0.12c-0.901-0.97-1.37-2.25-1.319-3.608l0.124-3.378
			c0.105-2.871,2.417-5.59,5.217-5.59l7.323,0.384h0.038v-0.061v-2.026h-7.309c-1.377,0-2.675,0.416-3.787,1.123
			c-2.01,1.281-3.403,3.529-3.498,6.091l-0.124,3.378c-0.042,1.145,0.095,2.312,0.546,3.312c0.311,0.687,0.709,1.335,1.233,1.897
			c0.453,0.486,1.012,0.886,1.564,1.213c1.026,0.611,2.254,0.871,3.486,0.871h6.345h0.964V234.026z"/>
		<path fill="#FAAC27" d="M88.677,155.512c-0.01-1.719,0.077-3.408,0.259-5.068c0.802-7.404,3.439-13.668,7.38-19.215
			c-8.252,0.101-15.024,8.868-15.998,20.775c-0.084,1.025-0.125,2.067-0.12,3.128c0.01,2.322,0.24,4.567,0.659,6.69
			c1.933,9.791,7.907,16.978,15.027,17.311c-2.579-3.774-4.565-8.092-5.792-12.781C89.194,162.913,88.699,159.276,88.677,155.512"/>
		<path fill="#CFECFB" d="M109.104,126.138c0.481,3.204,3.468,5.412,6.672,4.932c3.205-0.481,5.413-3.468,4.932-6.672
			c-0.481-3.205-3.467-5.412-6.672-4.932C110.832,119.947,108.624,122.934,109.104,126.138"/>
		<path fill="#025588" d="M140.081,229.354c-1.53,0-2.771-1.241-2.771-2.771c0-1.531,1.241-2.772,2.771-2.772
			s2.771,1.241,2.771,2.772C142.853,228.113,141.611,229.354,140.081,229.354"/>
		<path fill="#CFECFB" d="M113.545,171.014c-0.258-0.082-0.512-0.17-0.763-0.265c-1.221-0.457-2.368-1.065-3.42-1.8
			c-0.195-0.137-0.386-0.278-0.575-0.422c-0.315-0.243-0.623-0.497-0.919-0.764c-0.228-0.205-0.449-0.418-0.665-0.636
			c-0.232-0.236-0.455-0.48-0.672-0.73c-0.213-0.245-0.418-0.495-0.614-0.753c-1.081-1.417-1.924-3.026-2.465-4.768
			c-0.094-0.302-0.176-0.61-0.251-0.921c-0.153-0.63-0.268-1.277-0.342-1.936c-0.037-0.333-0.064-0.669-0.08-1.008
			c-0.01-0.237-0.018-0.475-0.018-0.714c0-0.423,0.022-0.841,0.055-1.256c0.029-0.35,0.065-0.699,0.117-1.043
			c0.094-0.632,0.23-1.251,0.399-1.856c0.062-0.219,0.126-0.437,0.197-0.651c0.142-0.435,0.301-0.861,0.48-1.277
			c0.061-0.142,0.126-0.283,0.191-0.424c1.708-3.665,4.812-6.548,8.629-7.963c0.332-0.123,0.67-0.232,1.012-0.333
			c0.632-0.185,1.279-0.334,1.941-0.437c0.031-0.005,0.06-0.01,0.09-0.015c0.756-0.114,1.53-0.174,2.319-0.174
			c0.987,0,2.067,0.211,3.202,0.578c0.318,0.103,0.64,0.217,0.966,0.344c1.546,0.601,3.173,1.457,4.803,2.459
			c0.283,0.175,0.567,0.354,0.85,0.536c0.332,0.214,0.665,0.433,0.995,0.657c0.257,0.174,0.513,0.35,0.767,0.528
			c1.986,1.389,3.909,2.904,5.619,4.337c0.63,0.528,1.326,0.931,2.055,1.222c0.337,0.133,0.68,0.244,1.028,0.328
			c0.696,0.167,1.41,0.231,2.121,0.196c0.2-0.01,0.399-0.027,0.598-0.053c0.716-0.092,1.42-0.284,2.091-0.583
			c0.123-0.054,0.244-0.116,0.364-0.177c0.398-0.204,0.781-0.445,1.146-0.724c0.091-0.069,0.186-0.135,0.273-0.209
			c0.161-0.134,0.321-0.269,0.485-0.404c0.256-0.212,0.517-0.425,0.78-0.639c0.26-0.21,0.522-0.42,0.787-0.631
			c0.35-0.276,0.703-0.553,1.063-0.827c0.088-0.068,0.178-0.137,0.268-0.205c1.628-1.235,3.341-2.437,5.049-3.475
			c0.171-0.103,0.342-0.206,0.513-0.306c0.31-0.182,0.618-0.36,0.926-0.53c0.259-0.141,0.516-0.277,0.771-0.41
			c1.191-0.616,2.359-1.122,3.474-1.471c0.286-0.091,0.568-0.17,0.848-0.239c0.783-0.193,1.534-0.302,2.239-0.302
			c1.002,0,1.981,0.1,2.931,0.283c0.27,0.051,0.537,0.109,0.802,0.176c1.199,0.297,2.343,0.737,3.413,1.297
			c0.312,0.163,0.618,0.335,0.916,0.518c0.374,0.229,0.736,0.475,1.088,0.734c0.103,0.076,0.203,0.155,0.304,0.233
			c1.053,0.818,1.998,1.768,2.808,2.828c0.055,0.07,0.108,0.141,0.161,0.213c0.271,0.368,0.528,0.747,0.767,1.139
			c0.188,0.309,0.362,0.627,0.528,0.95c0.553,1.071,0.983,2.213,1.273,3.413c0.083,0.34,0.153,0.685,0.213,1.034
			c0.123,0.72,0.195,1.456,0.215,2.205c0,0.028,0.001,0.056,0.002,0.084c0.002,0.107,0.008,0.214,0.008,0.322
			c0,0.809-0.062,1.603-0.183,2.377c-0.035,0.236-0.077,0.47-0.125,0.701c-0.149,0.739-0.353,1.456-0.603,2.152
			c-0.047,0.131-0.099,0.258-0.148,0.387c-0.137,0.348-0.282,0.692-0.442,1.027c-0.153,0.322-0.321,0.637-0.497,0.947
			c-1.564,2.763-3.954,4.995-6.837,6.36c-0.321,0.153-0.65,0.291-0.984,0.422c-1.164,0.455-2.396,0.772-3.678,0.932
			c-0.161,0.02-0.322,0.04-0.485,0.055c-0.477,0.044-0.958,0.07-1.445,0.07c-0.207,0-0.421-0.013-0.637-0.03
			c-0.276-0.024-0.559-0.059-0.847-0.11c-1.108-0.195-2.298-0.59-3.528-1.13c-0.273-0.12-0.548-0.247-0.825-0.38
			c-0.272-0.131-0.547-0.269-0.822-0.413c-0.264-0.137-0.528-0.28-0.794-0.427c-1.616-0.899-3.257-1.976-4.848-3.119
			c-0.231-0.166-0.462-0.334-0.69-0.503c-0.286-0.211-0.569-0.424-0.851-0.638c-0.234-0.179-0.468-0.358-0.698-0.536
			c-0.304-0.237-0.603-0.473-0.898-0.709c-0.241-0.193-0.479-0.385-0.715-0.576c-0.313-0.255-0.62-0.508-0.921-0.76
			c-0.042-0.035-0.086-0.072-0.129-0.108c-0.158-0.132-0.321-0.254-0.487-0.373c-0.959-0.68-2.038-1.11-3.148-1.289
			c-0.373-0.06-0.748-0.092-1.126-0.096c-0.75-0.008-1.5,0.099-2.227,0.316c-0.078,0.023-0.156,0.047-0.233,0.072
			c-0.354,0.118-0.7,0.265-1.035,0.437c-0.312,0.159-0.617,0.336-0.908,0.541c-0.175,0.123-0.347,0.253-0.513,0.392
			c-0.165,0.138-0.332,0.278-0.501,0.417c-0.076,0.062-0.152,0.124-0.228,0.187c-1.944,1.599-4.122,3.263-6.332,4.711
			c-0.281,0.183-0.563,0.364-0.846,0.541c-0.288,0.18-0.575,0.356-0.862,0.527c-0.274,0.163-0.549,0.322-0.822,0.476
			c-1.171,0.659-2.329,1.226-3.445,1.659c-0.212,0.083-0.423,0.162-0.632,0.234c-0.45,0.156-0.889,0.286-1.32,0.391
			c-0.065,0.016-0.131,0.032-0.195,0.047c-0.704,0.16-1.382,0.249-2.019,0.249c-0.058,0-0.115-0.004-0.171-0.005
			c-0.259-0.003-0.515-0.012-0.77-0.026C115.967,171.618,114.725,171.386,113.545,171.014"/>
		<path fill="#FAAC28" d="M87.855,163.666H82.52c-1.521,0-2.766-1.244-2.766-2.765v-10.186c0-1.521,1.245-2.765,2.766-2.765h5.336
			c1.521,0,2.766,1.244,2.766,2.765v10.186C90.622,162.422,89.376,163.666,87.855,163.666"/>
		<path fill="none" stroke="#025588" stroke-miterlimit="10" d="M87.855,163.666H82.52c-1.521,0-2.766-1.244-2.766-2.765v-10.186
			c0-1.521,1.245-2.765,2.766-2.765h5.336c1.521,0,2.766,1.244,2.766,2.765v10.186C90.622,162.422,89.376,163.666,87.855,163.666z"
			/>
		<path fill="#FAAC27" d="M193.846,155.59c0.011-1.719-0.077-3.408-0.258-5.068c-0.802-7.404-3.439-13.668-7.381-19.216
			c8.252,0.102,15.024,8.869,15.998,20.776c0.085,1.025,0.125,2.067,0.121,3.128c-0.011,2.322-0.241,4.567-0.66,6.69
			c-1.934,9.791-7.907,16.978-15.027,17.311c2.58-3.774,4.566-8.092,5.792-12.781C193.33,162.991,193.824,159.354,193.846,155.59"/>
		<path fill="#FAAC28" d="M194.667,163.744h5.337c1.521,0,2.766-1.244,2.766-2.766v-10.185c0-1.521-1.245-2.765-2.766-2.765h-5.337
			c-1.521,0-2.765,1.244-2.765,2.765v10.185C191.902,162.5,193.146,163.744,194.667,163.744"/>
		<path fill="none" stroke="#025588" stroke-miterlimit="10" d="M194.667,163.744h5.337c1.521,0,2.766-1.244,2.766-2.766v-10.185
			c0-1.521-1.245-2.765-2.766-2.765h-5.337c-1.521,0-2.765,1.244-2.765,2.765v10.185C191.902,162.5,193.146,163.744,194.667,163.744
			z"/>
		<g opacity="0.3">
			<g>
				<defs>
					<rect id="SVGID_5_" x="90.62" y="109.354" width="101.106" height="88.066"/>
				</defs>
				<clipPath id="SVGID_6_">
					<use xlink:href="#SVGID_5_"  overflow="visible"/>
				</clipPath>
				<path clip-path="url(#SVGID_6_)" fill="#2D94D1" d="M141.173,197.418c23.066-0.171,42.758-10.602,48.682-29.819
					c1.25-4.042,1.903-8.309,1.871-12.712c-0.015-2.012-0.171-3.987-0.462-5.924c-3.366-22.532-24.728-39.797-50.43-39.607
					c-25.707,0.19-46.804,17.767-49.839,40.346c-0.262,1.943-0.388,3.919-0.374,5.931c0.032,4.403,0.749,8.659,2.055,12.682
					C98.881,187.444,118.108,197.588,141.173,197.418"/>
			</g>
		</g>
		<path fill="#CFECFB" d="M165.728,180.081c0.48,3.205,3.468,5.412,6.672,4.932c3.204-0.481,5.412-3.467,4.932-6.672
			c-0.48-3.204-3.468-5.412-6.672-4.932C167.456,173.89,165.247,176.877,165.728,180.081"/>
		<path fill="#CFECFB" d="M179.507,164.916c-1.912,0.731-2.854,2.836-2.105,4.701c0.75,1.865,2.905,2.785,4.816,2.055
			c1.911-0.732,2.854-2.836,2.105-4.701C183.574,165.105,181.418,164.186,179.507,164.916"/>
		<path fill="#CFECFB" d="M102.94,130.021c-1.887,0.73-2.816,2.835-2.077,4.7c0.738,1.865,2.867,2.785,4.754,2.055
			c1.886-0.731,2.817-2.836,2.078-4.701C106.957,130.208,104.828,129.29,102.94,130.021"/>
		<path fill="#CFECFB" d="M109.034,126.146c0.483,3.204,3.488,5.412,6.711,4.932c3.224-0.481,5.444-3.468,4.961-6.672
			c-0.484-3.204-3.488-5.412-6.711-4.932C110.771,119.955,108.551,122.941,109.034,126.146"/>
		<path fill="#2D94D1" d="M230.109,238.007c16.126,15.897,16.312,41.857,0.413,57.983c-15.896,16.125-41.856,16.31-57.982,0.413
			c-16.125-15.898-16.31-41.858-0.411-57.983C188.024,222.295,213.984,222.11,230.109,238.007"/>
		<path fill="#065588" d="M227.664,231.721l1.433,1.412c9.895-7.225,17.161-10.638,19.354-8.475
			c4.264,4.202-12.269,27.888-36.93,52.901c-24.66,25.015-48.107,41.884-52.371,37.68c-2.193-2.162,1.116-9.477,8.2-19.474
			l-1.434-1.412c-11.421,15.333-17.023,27.121-13.577,30.52c5.698,5.619,33.969-13.817,63.142-43.409
			c29.174-29.593,48.204-58.136,42.506-63.754C254.54,214.312,242.833,220.082,227.664,231.721"/>
		<path fill="#025588" d="M72.929,270.079c0,4.289-0.802,7.654-2.403,10.1c-1.604,2.444-3.909,3.833-6.918,4.166l-5.833,0.644
			v-25.973l6.371-0.705c2.77-0.305,4.925,0.572,6.468,2.635C72.156,263.008,72.929,266.053,72.929,270.079 M68.382,270.724
			c0-5.803-1.466-8.543-4.398-8.219l-1.777,0.197v17.569l1.433-0.159c1.619-0.178,2.815-1.049,3.585-2.609
			C67.996,275.944,68.382,273.685,68.382,270.724"/>
		<path fill="#025588" d="M80.83,272.334v10.109l-4.431,0.488v-25.973l5.801-0.642c2.453-0.271,4.265,0.162,5.434,1.301
			c1.166,1.138,1.751,3.01,1.751,5.616c0,3.28-1.017,5.684-3.046,7.214l4.578,10.88l-4.742,0.524l-3.764-9.693L80.83,272.334z
			 M80.83,268.177l1.143-0.127c1.041-0.114,1.791-0.519,2.248-1.217c0.455-0.695,0.682-1.684,0.682-2.962
			c0-1.326-0.241-2.245-0.724-2.755c-0.484-0.507-1.23-0.706-2.24-0.596l-1.109,0.124V268.177z"/>
		<path fill="#025588" d="M107.731,253.498v16.806c0,3.093-0.641,5.523-1.922,7.292c-1.282,1.771-3.134,2.789-5.556,3.056
			c-2.368,0.263-4.171-0.348-5.411-1.826c-1.235-1.479-1.855-3.801-1.855-6.964v-16.735l4.398-0.485v17.091
			c0,3.303,1.005,4.846,3.015,4.623c0.935-0.104,1.657-0.604,2.168-1.5c0.509-0.897,0.765-2.121,0.765-3.674v-17.196
			L107.731,253.498z"/>
		<path fill="#025588" d="M124.826,259.605c0,2.76-0.64,4.946-1.914,6.562c-1.278,1.616-3.12,2.557-5.534,2.823l-1.107,0.122v9.416
			l-4.433,0.489v-25.973l6.046-0.668C122.511,251.866,124.826,254.274,124.826,259.605 M116.271,264.92l0.849-0.095
			c1.084-0.119,1.894-0.534,2.427-1.245c0.531-0.71,0.797-1.806,0.797-3.286c0-1.361-0.245-2.344-0.733-2.948
			c-0.489-0.603-1.244-0.847-2.263-0.734l-1.077,0.12V264.92z"/>
		<path fill="#025588" d="M138.432,276.08l-1.37-6.403l-6.208,0.687l-1.367,6.705l-4.433,0.489l5.897-26.731l6.013-0.665
			l5.914,25.429L138.432,276.08z M136.23,265.488l-1.271-5.901c-0.076-0.359-0.247-1.261-0.513-2.706
			c-0.267-1.445-0.426-2.413-0.48-2.905c-0.141,1.034-0.321,2.176-0.537,3.425c-0.219,1.251-0.784,4.111-1.696,8.584L136.23,265.488
			z"/>
		<polygon fill="#025588" points="144.979,275.358 144.979,249.385 149.41,248.895 149.41,270.64 155.554,269.963 155.554,274.19
			"/>
		<path fill="#025588" d="M166.292,250.887c-1.271,0.14-2.272,1.062-3.007,2.765c-0.732,1.703-1.099,4.001-1.099,6.892
			c0,6.017,1.438,8.865,4.317,8.547c1.26-0.139,2.579-0.722,3.958-1.753v4.301c-1.162,0.969-2.649,1.554-4.464,1.754
			c-2.683,0.296-4.745-0.64-6.184-2.81c-1.439-2.167-2.158-5.359-2.158-9.576s0.74-7.584,2.225-10.104
			c1.481-2.522,3.544-3.928,6.183-4.22c0.869-0.096,1.703-0.058,2.501,0.115c0.799,0.174,1.654,0.533,2.566,1.084l-1.466,4.088
			c-0.489-0.312-1.011-0.589-1.564-0.831C167.547,250.898,166.942,250.814,166.292,250.887"/>
		<path fill="#025588" d="M185.111,270.926l-1.368-6.404l-6.21,0.686l-1.367,6.707l-4.433,0.489l5.898-26.732l6.012-0.664
			l5.915,25.43L185.111,270.926z M182.91,260.332l-1.271-5.9c-0.074-0.359-0.247-1.261-0.512-2.705
			c-0.267-1.445-0.428-2.414-0.481-2.905c-0.142,1.032-0.32,2.176-0.536,3.425c-0.219,1.249-0.784,4.111-1.696,8.583L182.91,260.332
			z"/>
		<path fill="#025588" d="M200.166,269.263l-4.529-21.617l-0.181,0.021c0.207,1.681,0.311,3.233,0.311,4.653v17.43l-4.107,0.453
			v-25.973l6.812-0.753l4.073,19.963l0.131-0.015l4.039-20.859l6.908-0.761v25.973l-4.203,0.465v-17.606
			c0-1.457,0.075-2.958,0.229-4.502l-0.13,0.014l-4.514,22.582L200.166,269.263z"/>
		<path fill="#025588" d="M230.814,247.899c0,2.76-0.639,4.947-1.915,6.562c-1.275,1.616-3.119,2.556-5.531,2.822l-1.108,0.122
			v9.417l-4.433,0.489v-25.974l6.046-0.668C228.5,240.16,230.814,242.57,230.814,247.899 M222.26,253.214l0.848-0.093
			c1.085-0.121,1.896-0.535,2.428-1.245c0.531-0.71,0.798-1.806,0.798-3.286c0-1.361-0.244-2.346-0.733-2.948
			c-0.489-0.604-1.243-0.849-2.265-0.736l-1.075,0.12V253.214z"/>
		<path fill="#CFECFB" d="M70.356,268.063c0,4.288-0.8,7.654-2.403,10.1c-1.603,2.444-3.909,3.833-6.916,4.165l-5.834,0.646V257
			l6.372-0.704c2.769-0.307,4.924,0.571,6.467,2.634C69.586,260.992,70.356,264.037,70.356,268.063 M65.811,268.709
			c0-5.803-1.466-8.545-4.399-8.221l-1.776,0.196v17.57l1.434-0.158c1.619-0.178,2.813-1.049,3.584-2.608
			C65.426,273.928,65.811,271.67,65.811,268.709"/>
		<path fill="#CFECFB" d="M78.26,270.317v10.108l-4.433,0.491v-25.974l5.801-0.641c2.455-0.271,4.267,0.162,5.435,1.299
			c1.167,1.139,1.752,3.012,1.752,5.617c0,3.281-1.017,5.684-3.048,7.212l4.578,10.882l-4.74,0.524l-3.766-9.693L78.26,270.317z
			 M78.26,266.16l1.141-0.125c1.043-0.115,1.793-0.521,2.249-1.217c0.455-0.695,0.683-1.685,0.683-2.963
			c0-1.326-0.241-2.245-0.724-2.755c-0.484-0.507-1.231-0.707-2.242-0.595l-1.107,0.122V266.16z"/>
		<path fill="#CFECFB" d="M105.161,251.482v16.807c0,3.092-0.641,5.522-1.923,7.293c-1.281,1.77-3.133,2.787-5.555,3.054
			c-2.37,0.263-4.171-0.348-5.411-1.826c-1.237-1.479-1.856-3.801-1.856-6.964V253.11l4.399-0.484v17.089
			c0,3.305,1.003,4.847,3.014,4.624c0.935-0.103,1.656-0.604,2.167-1.5c0.51-0.896,0.767-2.122,0.767-3.675v-17.196L105.161,251.482
			z"/>
		<path fill="#CFECFB" d="M122.253,257.588c0,2.761-0.638,4.948-1.914,6.564c-1.276,1.614-3.12,2.556-5.532,2.821l-1.108,0.123
			v9.417l-4.433,0.489v-25.974l6.046-0.668C119.94,249.851,122.253,252.259,122.253,257.588 M113.699,262.904l0.848-0.095
			c1.086-0.119,1.894-0.534,2.427-1.244c0.532-0.71,0.799-1.807,0.799-3.287c0-1.361-0.245-2.345-0.734-2.947
			c-0.489-0.603-1.243-0.849-2.264-0.735l-1.076,0.119V262.904z"/>
		<path fill="#CFECFB" d="M135.859,274.065l-1.369-6.404l-6.209,0.685l-1.367,6.708l-4.433,0.489l5.899-26.732l6.011-0.664
			l5.916,25.429L135.859,274.065z M133.658,263.472l-1.27-5.9c-0.075-0.359-0.246-1.261-0.512-2.706
			c-0.267-1.445-0.428-2.413-0.481-2.905c-0.143,1.034-0.321,2.176-0.538,3.426c-0.218,1.25-0.783,4.111-1.695,8.582
			L133.658,263.472z"/>
		<polygon fill="#CFECFB" points="142.407,273.342 142.407,247.368 146.84,246.879 146.84,268.625 152.983,267.947 152.983,272.175
					"/>
		<path fill="#CFECFB" d="M163.72,248.871c-1.271,0.14-2.271,1.061-3.006,2.765c-0.731,1.703-1.1,4-1.1,6.891
			c0,6.016,1.438,8.866,4.317,8.549c1.26-0.141,2.581-0.724,3.96-1.753v4.3c-1.162,0.969-2.65,1.554-4.464,1.755
			c-2.683,0.296-4.745-0.642-6.185-2.81c-1.439-2.167-2.158-5.359-2.158-9.577c0-4.216,0.741-7.585,2.225-10.106
			c1.482-2.521,3.543-3.926,6.182-4.217c0.87-0.096,1.703-0.058,2.503,0.114c0.799,0.173,1.652,0.533,2.564,1.084l-1.466,4.089
			c-0.489-0.313-1.009-0.591-1.564-0.831C164.975,248.883,164.372,248.799,163.72,248.871"/>
		<path fill="#CFECFB" d="M182.541,268.91l-1.37-6.405l-6.208,0.687l-1.367,6.706l-4.433,0.49l5.898-26.731l6.012-0.665
			l5.913,25.427L182.541,268.91z M180.34,258.316l-1.271-5.901c-0.076-0.357-0.247-1.261-0.514-2.704
			c-0.267-1.447-0.426-2.416-0.48-2.905c-0.142,1.032-0.321,2.176-0.537,3.425c-0.219,1.249-0.782,4.112-1.696,8.583L180.34,258.316
			z"/>
		<path fill="#CFECFB" d="M197.595,267.247l-4.53-21.617l-0.18,0.02c0.207,1.682,0.312,3.234,0.312,4.655v17.429l-4.107,0.454
			v-25.974l6.812-0.753l4.073,19.963l0.13-0.015l4.041-20.858l6.907-0.764v25.974l-4.204,0.465V248.62
			c0-1.458,0.077-2.958,0.229-4.503l-0.13,0.015l-4.512,22.582L197.595,267.247z"/>
		<path fill="#CFECFB" d="M228.242,245.885c0,2.76-0.638,4.945-1.913,6.562c-1.277,1.616-3.12,2.556-5.532,2.822l-1.109,0.123v9.416
			l-4.431,0.489v-25.974l6.046-0.667C225.93,238.145,228.242,240.555,228.242,245.885 M219.688,251.198l0.849-0.094
			c1.086-0.119,1.895-0.535,2.428-1.245c0.533-0.709,0.799-1.805,0.799-3.285c0-1.361-0.244-2.345-0.733-2.947
			c-0.488-0.604-1.243-0.849-2.265-0.737l-1.077,0.12V251.198z"/>
		<path fill="#065588" d="M42.823,251.701c-0.384-0.594-0.593-1.21-0.659-1.873c-0.244-2.473,1.806-5.056,5.634-5.814
			c0.066-5.904,0.704-9.621,1.533-11.985l-0.642,0.081c-4.293,0.545-8.857-0.739-14.903,0.029c-5.607,0.71-7.983,5.684-7.567,9.876
			c0.347,3.5,2.624,6.479,6.625,5.971c4.03-0.511,5.163-3.708,4.823-7.146c-0.055-0.543-0.137-1.082-0.252-1.648l2.579-0.815
			c0.119,0.596,0.237,1.191,0.296,1.794c0.437,4.405-1.223,8.555-7.269,9.322c-5.898,0.748-9.202-3.048-9.644-7.512
			c-0.508-5.128,2.798-11.168,10.274-12.117c6.308-0.8,11.574,1.005,15.225,0.543c0.496-0.063,0.903-0.143,1.279-0.223
			c0.881-1.549,1.803-2.092,2.432-2.325l1.155,1.229c-0.413,0.908-1.019,1.656-2.086,2.22c-0.44,1.827-0.895,5.306-0.92,12.213
			c0.747-0.218,1.428-0.519,2.018-0.835c0.443-1.799,0.948-2.962,0.948-2.962l1.689,0.641c-0.038,1.104-0.487,2.231-1.461,3.146
			c-0.005,1.438,0.04,3.691,0.282,6.136l-2.104,0.267c-0.187-1.899-0.016-3.755,0.24-5.345c-0.48,0.214-1.021,0.435-1.627,0.603
			c-0.342,13.546-5.174,17.306-9.673,17.877c-4.76,0.603-7.026-1.981-7.301-4.759c-0.26-2.623,1.238-5.409,4.068-5.798l0.36,2.733
			c-1.287,0.164-1.971,1.595-1.829,3.041c0.174,1.751,1.562,3.53,4.627,3.141c3.068-0.389,6.411-2.767,6.79-15.645
			c-1.898,0.516-3.337,1.523-3.152,3.395c0.041,0.421,0.174,0.861,0.371,1.354L42.823,251.701z"/>
		<path fill="#065588" d="M62.436,245.791c0.146-0.019,0.723,0.152,0.739,0.303l0.003,0.031c-1.245,5.044-2.364,7.479-4.263,7.72
			c-1.751,0.221-2.63-1.469-2.941-4.605c-0.217-2.204-0.154-5.143,0.09-8.658c0.565-7.738,2.068-11.378,3.76-11.594
			c1.518-0.192,2.083,1.017,2.234,2.555c0.177,1.779-0.195,3.997-0.394,4.969c-0.806,4.104-2.469,7.309-3.493,8.936
			c-0.016,1.316,0.013,2.503,0.109,3.469c0.2,2.022,0.7,2.599,1.371,2.515C60.586,251.311,61.509,249.3,62.436,245.791
			 M60.403,230.959c-0.789,0.1-1.866,6.834-2.156,12.554c1.187-2.93,2.848-8.243,2.514-11.927
			C60.718,231.163,60.548,230.941,60.403,230.959"/>
		<path fill="#065588" d="M72.874,244.895c-0.493,1.896-1.681,3.33-3.033,4.021c-0.774,2.328-2.136,3.814-4.006,4.053
			c-2.015,0.254-3.106-1.806-3.378-4.551c-0.166-1.691-0.034-3.631,0.374-5.484l1.077,0.137c0.093-2.365,1.118-4.54,3.192-4.804
			c1.957-0.247,3.209,1.944,3.477,4.66c0.147,1.478-0.052,3.061-0.299,4.437c0.724-0.46,1.351-1.301,1.736-2.787
			C72.188,244.553,72.854,244.715,72.874,244.895 M67.186,249.282c-1.274-0.329-2.182-1.436-2.734-2.832
			c-0.014,0.462,0.001,0.918,0.039,1.311c0.177,1.779,0.768,2.958,1.497,2.865c0.089-0.013,0.146-0.02,0.23-0.061
			C66.587,250.396,66.895,249.93,67.186,249.282 M65.536,244.572c0.162,1.629,0.785,3.14,2.138,3.364
			c0.484-1.681,0.713-3.847,0.555-5.446c-0.135-1.356-0.557-2.341-1.375-2.237c-0.058,0.008-0.144,0.048-0.202,0.056
			C65.823,240.597,65.346,242.641,65.536,244.572"/>
		<path fill="#065588" d="M76.576,249.129c0.643-0.081,1.506-1.81,2.446-5.442c0.147-0.019,0.839,0.108,0.858,0.288l0.003,0.032
			c-0.946,3.601-1.62,7.23-4.016,7.533c-1.373,0.176-1.988-0.663-2.123-2.021c-0.194-1.961,0.937-4.274,0.785-5.813
			c-0.09-0.904-0.421-1.564-0.806-2.156l-0.851,3.345c0,0-0.832-0.047-0.856-0.287l-0.002-0.03c0.381-1.517,0.611-3.072,0.761-4.559
			c-0.359-0.624-0.674-1.409-0.778-2.466c-0.096-0.965-0.01-2.198,0.303-3.826l2.255,0.387c0.081,2.005-0.009,3.482-0.322,5.111
			c1.066,0.904,2.442,1.95,2.611,3.671c0.191,1.93-0.905,4.604-0.798,5.66C76.09,249.007,76.283,249.166,76.576,249.129"/>
		<path fill="#065588" d="M82.229,236.651c-0.557,4.837-1.058,8.444-0.812,10.917c0.087,0.875,0.423,0.984,0.686,0.952
			c0.759-0.098,1.556-1.908,2.497-5.541c0.146-0.019,0.838,0.107,0.858,0.287l0.002,0.031c-0.944,3.602-1.621,7.232-4.016,7.535
			c-1.576,0.2-2.252-1.241-2.458-3.323c-0.332-3.349,0.479-8.309,0.76-10.543L82.229,236.651z M79.771,233.634
			c-0.107-1.084,0.522-2.479,1.809-2.642c0.963-0.122,1.444,0.549,1.528,1.395c0.107,1.085-0.527,2.449-1.813,2.611
			C80.362,235.117,79.853,234.448,79.771,233.634"/>
		<path fill="#065588" d="M91.461,225.37l2.306-0.294c0.139,2.58-0.3,8.898-1.06,14.066c-0.235,3.297-0.28,5.228-0.183,6.223
			c0.064,0.634,0.176,0.863,0.38,0.839c0.672-0.087,1.378-1.917,2.065-4.539c0.174-0.022,0.84,0.136,0.858,0.317
			c-1.302,5.053-2.758,7.376-4.103,7.547c-0.933,0.118-1.546-0.689-1.753-2.771c-0.008-0.092-0.02-0.213-0.032-0.332
			c-0.489,1.926-1.352,3.653-3.018,3.864c-1.431,0.182-2.179-1.404-2.395-3.577c-0.421-4.253,1.178-10.809,3.951-11.16
			c1.081-0.137,1.759,0.447,2.1,1.779L91.461,225.37z M86.95,246.103c0.093,0.936,0.33,1.547,0.739,1.496
			c1.344-0.171,2.521-5.301,2.244-8.104c-0.111-1.119-0.453-1.87-1.094-1.788C87.582,237.866,86.68,243.388,86.95,246.103"/>
		<path fill="#065588" d="M97.259,248.979c-1.43,0.182-2.177-1.372-2.395-3.576c-0.422-4.253,1.206-10.813,3.982-11.164
			c1.08-0.139,1.758,0.449,2.097,1.778l0.156-1.729l2.074-0.262c-0.54,4.711-1.095,8.661-0.773,11.919
			c0.509,5.128,3.729,7.193,7.409,6.727c4.761-0.604,7.768-5.475,7.224-10.965c-0.453-4.586-3.158-6.809-7.883-6.73l-0.032-2.407
			c6.24-0.303,9.369,3.516,9.887,8.734c0.54,5.459-2.65,12.066-9.134,12.889c-5.9,0.748-8.925-2.626-9.525-8.69
			c-0.012-0.119-0.024-0.24-0.038-0.391C99.816,247.037,98.953,248.765,97.259,248.979 M97.289,244.792
			c0.091,0.934,0.329,1.547,0.769,1.49c1.343-0.171,2.52-5.3,2.242-8.104c-0.111-1.118-0.451-1.868-1.093-1.787
			C97.979,236.548,97.017,242.046,97.289,244.792"/>
		<path fill="#CFECFB" d="M41.312,250.659c-0.384-0.595-0.594-1.209-0.658-1.871c-0.246-2.475,1.804-5.057,5.634-5.816
			c0.066-5.905,0.704-9.619,1.533-11.986l-0.643,0.082c-4.293,0.544-8.856-0.739-14.902,0.028c-5.607,0.71-7.984,5.685-7.568,9.878
			c0.346,3.499,2.625,6.479,6.624,5.971c4.032-0.512,5.165-3.708,4.823-7.146c-0.053-0.544-0.137-1.083-0.252-1.65l2.581-0.814
			c0.118,0.597,0.235,1.192,0.296,1.795c0.436,4.404-1.223,8.554-7.269,9.321c-5.899,0.749-9.203-3.048-9.644-7.512
			c-0.509-5.128,2.796-11.168,10.272-12.116c6.31-0.802,11.574,1.005,15.225,0.542c0.497-0.063,0.903-0.145,1.279-0.223
			c0.882-1.548,1.805-2.092,2.432-2.326l1.157,1.23c-0.413,0.906-1.019,1.656-2.087,2.219c-0.44,1.826-0.894,5.305-0.92,12.214
			c0.748-0.22,1.429-0.519,2.018-0.837c0.442-1.799,0.949-2.96,0.949-2.96l1.689,0.639c-0.038,1.104-0.489,2.231-1.463,3.147
			c-0.005,1.438,0.041,3.692,0.284,6.136l-2.104,0.267c-0.189-1.9-0.016-3.755,0.239-5.346c-0.481,0.214-1.02,0.436-1.626,0.604
			c-0.342,13.545-5.174,17.306-9.673,17.876c-4.76,0.604-7.028-1.98-7.302-4.757c-0.261-2.624,1.238-5.409,4.067-5.8l0.36,2.735
			c-1.285,0.162-1.971,1.594-1.829,3.041c0.174,1.75,1.564,3.529,4.629,3.141c3.068-0.389,6.411-2.77,6.79-15.646
			c-1.9,0.516-3.337,1.523-3.154,3.394c0.043,0.422,0.176,0.863,0.373,1.357L41.312,250.659z"/>
		<path fill="#CFECFB" d="M60.924,244.749c0.148-0.019,0.726,0.153,0.741,0.304l0.003,0.03c-1.247,5.045-2.366,7.479-4.263,7.719
			c-1.753,0.222-2.63-1.468-2.941-4.605c-0.217-2.204-0.154-5.143,0.088-8.656c0.565-7.738,2.068-11.382,3.762-11.596
			c1.518-0.192,2.081,1.019,2.234,2.557c0.177,1.779-0.196,3.995-0.394,4.967c-0.806,4.106-2.471,7.311-3.491,8.937
			c-0.018,1.315,0.009,2.503,0.105,3.47c0.2,2.021,0.701,2.599,1.373,2.513C59.076,250.27,60,248.257,60.924,244.749
			 M58.894,229.917c-0.79,0.101-1.866,6.834-2.158,12.555c1.188-2.932,2.85-8.245,2.514-11.927
			C59.208,230.122,59.04,229.898,58.894,229.917"/>
		<path fill="#CFECFB" d="M71.362,243.854c-0.492,1.896-1.681,3.329-3.031,4.021c-0.776,2.327-2.137,3.812-4.006,4.05
			c-2.016,0.256-3.108-1.805-3.378-4.55c-0.168-1.691-0.035-3.63,0.373-5.484l1.078,0.139c0.091-2.366,1.118-4.542,3.191-4.804
			c1.958-0.249,3.209,1.942,3.479,4.658c0.146,1.477-0.053,3.062-0.3,4.437c0.723-0.458,1.349-1.299,1.736-2.785
			C70.679,243.512,71.345,243.672,71.362,243.854 M65.675,248.239c-1.274-0.326-2.181-1.433-2.735-2.83
			c-0.014,0.461,0.003,0.918,0.041,1.31c0.177,1.779,0.767,2.958,1.497,2.865c0.087-0.012,0.146-0.02,0.23-0.062
			C65.077,249.355,65.386,248.889,65.675,248.239 M64.027,243.53c0.161,1.63,0.782,3.139,2.137,3.365
			c0.482-1.683,0.713-3.85,0.553-5.446c-0.133-1.357-0.556-2.343-1.375-2.237c-0.058,0.007-0.142,0.048-0.201,0.054
			C64.312,239.555,63.836,241.6,64.027,243.53"/>
		<path fill="#CFECFB" d="M75.064,248.089c0.643-0.083,1.507-1.812,2.448-5.443c0.145-0.02,0.839,0.107,0.857,0.287l0.003,0.031
			c-0.945,3.604-1.621,7.231-4.015,7.535c-1.373,0.174-1.987-0.663-2.123-2.021c-0.194-1.961,0.938-4.273,0.784-5.813
			c-0.09-0.904-0.42-1.565-0.805-2.156l-0.851,3.346c0,0-0.832-0.049-0.858-0.29l-0.002-0.029c0.381-1.515,0.613-3.072,0.761-4.557
			c-0.357-0.626-0.672-1.411-0.776-2.468c-0.096-0.965-0.012-2.196,0.301-3.826l2.256,0.388c0.08,2.005-0.01,3.482-0.322,5.11
			c1.067,0.904,2.441,1.952,2.612,3.671c0.191,1.93-0.905,4.605-0.8,5.662C74.579,247.965,74.772,248.126,75.064,248.089"/>
		<path fill="#CFECFB" d="M80.719,235.61c-0.556,4.836-1.057,8.443-0.812,10.918c0.087,0.875,0.424,0.983,0.687,0.949
			c0.758-0.096,1.556-1.907,2.496-5.541c0.147-0.018,0.839,0.109,0.857,0.289l0.002,0.031c-0.943,3.604-1.619,7.23-4.014,7.535
			c-1.577,0.2-2.252-1.242-2.458-3.324c-0.332-3.348,0.478-8.309,0.76-10.545L80.719,235.61z M78.26,232.591
			c-0.107-1.084,0.524-2.478,1.81-2.642c0.962-0.122,1.444,0.552,1.528,1.396c0.107,1.086-0.527,2.448-1.812,2.612
			C78.851,234.074,78.341,233.405,78.26,232.591"/>
		<path fill="#CFECFB" d="M89.952,224.329l2.306-0.294c0.137,2.579-0.301,8.896-1.06,14.065c-0.236,3.297-0.281,5.228-0.183,6.222
			c0.064,0.634,0.174,0.864,0.378,0.838c0.672-0.086,1.378-1.914,2.065-4.538c0.174-0.022,0.84,0.138,0.86,0.319
			c-1.304,5.051-2.76,7.376-4.103,7.547c-0.934,0.117-1.546-0.691-1.753-2.772c-0.009-0.09-0.021-0.213-0.033-0.332
			c-0.49,1.926-1.351,3.654-3.018,3.866c-1.43,0.181-2.18-1.404-2.395-3.577c-0.422-4.253,1.177-10.809,3.95-11.161
			c1.082-0.137,1.761,0.448,2.1,1.78L89.952,224.329z M85.44,245.062c0.093,0.937,0.329,1.547,0.739,1.493
			c1.344-0.169,2.521-5.3,2.242-8.104c-0.11-1.118-0.451-1.868-1.093-1.786C86.072,236.825,85.17,242.347,85.44,245.062"/>
		<path fill="#CFECFB" d="M95.749,247.938c-1.43,0.183-2.176-1.372-2.395-3.576c-0.421-4.253,1.207-10.812,3.981-11.165
			c1.082-0.136,1.759,0.449,2.099,1.78l0.155-1.729l2.073-0.263c-0.539,4.711-1.093,8.66-0.771,11.918
			c0.508,5.13,3.729,7.195,7.409,6.728c4.761-0.604,7.768-5.476,7.224-10.966c-0.455-4.586-3.16-6.808-7.883-6.729l-0.032-2.409
			c6.238-0.303,9.369,3.516,9.886,8.735c0.541,5.458-2.65,12.065-9.133,12.889c-5.9,0.748-8.925-2.627-9.525-8.69
			c-0.013-0.12-0.025-0.241-0.039-0.392C98.307,245.994,97.443,247.722,95.749,247.938 M95.778,243.75
			c0.093,0.936,0.33,1.546,0.768,1.491c1.343-0.171,2.52-5.301,2.244-8.104c-0.111-1.117-0.452-1.87-1.095-1.787
			C96.467,235.505,95.506,241.004,95.778,243.75"/>
		<polygon fill="#065588" points="107.644,299.822 103.284,300.376 103.284,283.989 112.966,282.761 112.966,286.312
			107.644,286.989 107.644,290.116 112.552,289.492 112.552,293.044 107.644,293.668 		"/>
		<path fill="#065588" d="M121.53,298.281c-2.115,0.268-3.756-0.084-4.925-1.062c-1.169-0.975-1.754-2.503-1.754-4.58
			c0-2.142,0.54-3.857,1.625-5.142c1.082-1.285,2.629-2.056,4.64-2.312c1.912-0.243,3.388,0.069,4.433,0.935
			c1.041,0.864,1.562,2.234,1.562,4.11v1.95l-7.833,0.996c0.029,0.705,0.288,1.229,0.779,1.571c0.489,0.339,1.154,0.457,2,0.35
			c0.77-0.097,1.478-0.26,2.123-0.488c0.647-0.228,1.347-0.564,2.103-1.013v3.149c-0.689,0.438-1.399,0.771-2.131,0.998
			C123.419,297.975,122.544,298.151,121.53,298.281 M121.271,288.148c-0.516,0.064-0.947,0.283-1.295,0.651
			c-0.348,0.37-0.551,0.907-0.609,1.607l3.765-0.479c-0.015-0.609-0.189-1.078-0.521-1.4
			C122.28,288.203,121.833,288.078,121.271,288.148"/>
		<path fill="#065588" d="M137.343,283.123c1.382-0.175,2.479,0.264,3.289,1.319c0.812,1.056,1.217,2.607,1.217,4.653
			c0,2.062-0.409,3.732-1.229,5.004c-0.816,1.273-1.955,2.002-3.412,2.189c-0.47,0.058-0.888,0.061-1.255,0.006
			c-0.365-0.053-0.692-0.151-0.981-0.295c-0.288-0.144-0.621-0.398-1.002-0.769l-0.269,0.034l-0.695,1.331l-3.418,0.435v-17.438
			l4.382-0.558v3.945c0,0.473-0.053,1.289-0.156,2.451l0.156-0.018c0.424-0.713,0.917-1.249,1.473-1.611
			C136,283.44,136.633,283.213,137.343,283.123 M135.741,286.769c-0.614,0.077-1.061,0.348-1.347,0.81
			c-0.282,0.463-0.424,1.149-0.424,2.06v0.617c0,1.039,0.142,1.767,0.424,2.181c0.286,0.417,0.748,0.585,1.391,0.502
			c0.516-0.064,0.912-0.378,1.187-0.94c0.278-0.562,0.415-1.354,0.415-2.378C137.387,287.579,136.839,286.628,135.741,286.769"/>
		<path fill="#065588" d="M159.354,293.248l-4.493,0.57v-8.674c0-1.055,0.022-2.021,0.066-2.9c-0.275,0.371-0.619,0.766-1.031,1.185
			l-1.86,1.771l-2.297-2.532l5.626-5.299l3.989-0.508V293.248z"/>
		<path fill="#065588" d="M163.031,285.854c0-2.286,0.326-4.178,0.981-5.677c0.653-1.499,1.617-2.666,2.891-3.501
			c1.274-0.834,2.846-1.369,4.712-1.606c0.666-0.085,1.442-0.119,2.331-0.107v3.464c-0.745-0.046-1.558-0.014-2.431,0.096
			c-1.479,0.188-2.581,0.654-3.306,1.395c-0.725,0.744-1.121,1.855-1.189,3.336l0.136-0.018c0.672-1.355,1.752-2.129,3.238-2.317
			c1.457-0.186,2.588,0.14,3.39,0.975c0.805,0.837,1.206,2.091,1.206,3.765c0,1.8-0.508,3.286-1.524,4.46
			c-1.017,1.171-2.437,1.871-4.26,2.103c-1.935,0.246-3.447-0.188-4.537-1.306C163.576,289.797,163.031,288.11,163.031,285.854
			 M169.105,288.725c0.472-0.061,0.854-0.284,1.149-0.678c0.294-0.394,0.441-0.977,0.441-1.755c0-1.33-0.514-1.93-1.545-1.798
			c-0.51,0.064-0.921,0.291-1.239,0.673c-0.318,0.383-0.476,0.823-0.476,1.315c0,0.719,0.151,1.286,0.459,1.707
			C168.202,288.609,168.606,288.788,169.105,288.725"/>
		<polygon fill="#065588" points="176.178,286.705 176.178,283.209 182.511,282.403 182.511,285.898 		"/>
		<path fill="#065588" d="M193.55,288.901l-4.493,0.57v-8.674c0-1.056,0.021-2.021,0.067-2.899c-0.276,0.371-0.62,0.765-1.032,1.185
			l-1.861,1.771l-2.296-2.531l5.626-5.3l3.989-0.507V288.901z"/>
		<path fill="#065588" d="M203.212,271.053c1.726-0.22,3.068-0.043,4.029,0.528c0.959,0.573,1.44,1.498,1.44,2.777
			c0,0.867-0.226,1.654-0.678,2.368c-0.453,0.71-1.168,1.369-2.147,1.98c1.211,0.533,2.063,1.11,2.562,1.73
			c0.498,0.622,0.745,1.326,0.745,2.119c0,1.459-0.527,2.651-1.579,3.586c-1.055,0.934-2.526,1.52-4.417,1.76
			c-1.929,0.244-3.402,0.043-4.428-0.608c-1.022-0.65-1.535-1.709-1.535-3.173c0-0.949,0.228-1.786,0.684-2.514
			c0.455-0.727,1.222-1.431,2.297-2.112c-0.866-0.473-1.5-1.019-1.896-1.637c-0.401-0.617-0.602-1.326-0.602-2.126
			c0-1.254,0.488-2.295,1.469-3.117C200.133,271.793,201.485,271.271,203.212,271.053 M201.262,283.426
			c0,0.465,0.163,0.814,0.493,1.053c0.33,0.237,0.785,0.321,1.368,0.249c1.314-0.168,1.971-0.736,1.971-1.7
			c0-0.365-0.144-0.707-0.43-1.025c-0.289-0.316-0.803-0.649-1.541-0.997c-0.664,0.435-1.143,0.849-1.43,1.24
			C201.406,282.638,201.262,283.03,201.262,283.426 M203.189,274.249c-0.381,0.049-0.702,0.199-0.965,0.452
			c-0.262,0.255-0.391,0.557-0.391,0.907c0,0.645,0.437,1.155,1.311,1.538c0.53-0.374,0.894-0.699,1.087-0.979
			c0.194-0.278,0.292-0.579,0.292-0.898c0-0.359-0.132-0.631-0.393-0.813C203.87,274.271,203.556,274.202,203.189,274.249"/>
		<path fill="#065588" d="M228.43,284.467l-11.892,1.512v-2.914l4.001-4.554c1.144-1.342,1.891-2.252,2.241-2.735
			c0.352-0.48,0.597-0.887,0.735-1.219c0.137-0.331,0.207-0.668,0.207-1.013c0-0.426-0.14-0.744-0.415-0.955
			c-0.277-0.212-0.665-0.287-1.167-0.224c-0.514,0.066-1.035,0.281-1.562,0.642c-0.526,0.363-1.123,0.874-1.787,1.534l-2.433-2.538
			c0.845-0.86,1.553-1.492,2.129-1.889c0.576-0.399,1.202-0.728,1.879-0.984c0.674-0.259,1.436-0.44,2.28-0.548
			c1.061-0.136,2.009-0.068,2.841,0.199c0.834,0.268,1.479,0.717,1.938,1.351c0.461,0.632,0.692,1.379,0.692,2.237
			c0,0.643-0.082,1.246-0.243,1.812c-0.16,0.567-0.409,1.134-0.745,1.703s-0.784,1.181-1.339,1.835
			c-0.558,0.654-1.743,1.909-3.558,3.77v0.112l6.197-0.788V284.467z"/>
		<path fill="#065588" d="M241.946,274.578c0,2.898-0.486,5.085-1.457,6.557c-0.973,1.473-2.458,2.335-4.463,2.59
			c-1.956,0.249-3.432-0.268-4.425-1.55c-0.994-1.281-1.491-3.312-1.491-6.091c0-2.914,0.484-5.114,1.457-6.598
			s2.457-2.352,4.459-2.605c1.952-0.248,3.426,0.272,4.423,1.56C241.446,269.73,241.946,271.775,241.946,274.578 M234.516,275.523
			c0,1.854,0.114,3.112,0.348,3.777c0.23,0.666,0.618,0.963,1.163,0.895c0.555-0.07,0.944-0.479,1.173-1.227
			c0.229-0.746,0.342-2.022,0.342-3.831c0-1.815-0.116-3.071-0.348-3.771c-0.232-0.697-0.618-1.014-1.167-0.944
			c-0.545,0.069-0.933,0.47-1.163,1.203C234.63,272.356,234.516,273.655,234.516,275.523"/>
		<path fill="#065588" d="M253.31,281.304l-4.493,0.572v-8.674c0-1.056,0.022-2.021,0.066-2.901
			c-0.275,0.371-0.618,0.765-1.031,1.186l-1.86,1.77l-2.297-2.53l5.626-5.301l3.989-0.507V281.304z"/>
		<path fill="#065588" d="M262.971,263.455c1.727-0.22,3.07-0.043,4.029,0.529c0.961,0.573,1.44,1.498,1.44,2.776
			c0,0.866-0.225,1.656-0.678,2.366c-0.452,0.714-1.166,1.371-2.146,1.982c1.209,0.534,2.063,1.111,2.561,1.731
			s0.745,1.327,0.745,2.12c0,1.455-0.526,2.65-1.58,3.584c-1.055,0.934-2.526,1.521-4.415,1.761
			c-1.93,0.244-3.404,0.042-4.428-0.608c-1.024-0.65-1.537-1.708-1.537-3.172c0-0.949,0.229-1.787,0.684-2.514
			c0.457-0.728,1.223-1.432,2.299-2.113c-0.866-0.474-1.5-1.018-1.899-1.637c-0.4-0.616-0.6-1.326-0.6-2.126
			c0-1.254,0.489-2.294,1.469-3.117C259.894,264.196,261.246,263.675,262.971,263.455 M261.021,275.828
			c0,0.464,0.164,0.814,0.492,1.054c0.331,0.237,0.786,0.321,1.37,0.248c1.314-0.169,1.97-0.734,1.97-1.698
			c0-0.365-0.143-0.708-0.432-1.026c-0.286-0.317-0.8-0.65-1.538-0.997c-0.666,0.435-1.143,0.849-1.431,1.24
			S261.021,275.434,261.021,275.828 M262.949,266.652c-0.381,0.048-0.703,0.2-0.964,0.452c-0.263,0.255-0.391,0.557-0.391,0.907
			c0,0.644,0.437,1.155,1.31,1.538c0.53-0.374,0.893-0.7,1.088-0.979c0.194-0.278,0.29-0.579,0.29-0.9
			c0-0.357-0.13-0.629-0.392-0.812C263.63,266.674,263.314,266.604,262.949,266.652"/>
		<polygon fill="#CFECFB" points="106.012,298.191 101.653,298.745 101.653,282.359 111.335,281.127 111.335,284.681
			106.012,285.358 106.012,288.485 110.921,287.861 110.921,291.413 106.012,292.037 		"/>
		<path fill="#CFECFB" d="M119.898,296.648c-2.115,0.27-3.756-0.082-4.925-1.061c-1.169-0.976-1.754-2.501-1.754-4.578
			c0-2.144,0.54-3.858,1.625-5.145c1.082-1.283,2.629-2.054,4.64-2.311c1.911-0.242,3.388,0.069,4.433,0.935
			c1.041,0.864,1.562,2.234,1.562,4.11v1.95l-7.833,0.996c0.029,0.705,0.288,1.229,0.779,1.57c0.489,0.34,1.154,0.458,2,0.351
			c0.77-0.098,1.478-0.261,2.123-0.488c0.647-0.228,1.347-0.565,2.103-1.013v3.149c-0.69,0.438-1.399,0.771-2.131,0.999
			C121.789,296.342,120.914,296.521,119.898,296.648 M119.641,286.518c-0.516,0.064-0.947,0.281-1.295,0.651
			c-0.348,0.369-0.551,0.906-0.611,1.607l3.767-0.479c-0.014-0.609-0.188-1.078-0.521-1.4
			C120.648,286.572,120.202,286.445,119.641,286.518"/>
		<path fill="#CFECFB" d="M135.712,281.493c1.382-0.178,2.479,0.264,3.29,1.318c0.811,1.056,1.216,2.607,1.216,4.653
			c0,2.062-0.409,3.73-1.229,5.004c-0.815,1.272-1.955,2.003-3.411,2.187c-0.471,0.061-0.889,0.063-1.256,0.009
			c-0.365-0.055-0.692-0.151-0.981-0.296c-0.288-0.143-0.621-0.397-1.002-0.768l-0.269,0.034l-0.695,1.331l-3.418,0.435v-17.438
			l4.382-0.558v3.945c0,0.472-0.053,1.288-0.156,2.451l0.156-0.018c0.424-0.713,0.917-1.249,1.473-1.611
			C134.371,281.81,135.002,281.583,135.712,281.493 M134.11,285.138c-0.614,0.078-1.061,0.348-1.347,0.809
			c-0.282,0.464-0.424,1.15-0.424,2.061v0.617c0,1.039,0.142,1.767,0.424,2.181c0.286,0.417,0.749,0.585,1.391,0.502
			c0.516-0.064,0.912-0.38,1.187-0.94c0.278-0.562,0.416-1.354,0.416-2.378C135.757,285.947,135.208,284.997,134.11,285.138"/>
		<path fill="#CFECFB" d="M157.724,291.616l-4.493,0.571v-8.674c0-1.055,0.021-2.021,0.066-2.9
			c-0.275,0.371-0.619,0.766-1.031,1.186l-1.86,1.771l-2.297-2.533l5.626-5.299l3.989-0.508V291.616z"/>
		<path fill="#CFECFB" d="M161.4,284.223c0-2.286,0.326-4.178,0.981-5.678c0.653-1.498,1.617-2.665,2.891-3.5
			c1.274-0.834,2.846-1.37,4.712-1.607c0.665-0.084,1.442-0.119,2.331-0.106v3.464c-0.747-0.046-1.558-0.016-2.431,0.096
			c-1.479,0.188-2.581,0.654-3.306,1.395c-0.725,0.744-1.121,1.855-1.189,3.336l0.135-0.018c0.673-1.355,1.753-2.129,3.239-2.317
			c1.457-0.186,2.588,0.14,3.39,0.975c0.805,0.837,1.206,2.091,1.206,3.765c0,1.8-0.509,3.286-1.524,4.459
			c-1.017,1.171-2.437,1.872-4.26,2.104c-1.935,0.246-3.447-0.188-4.537-1.305C161.945,288.166,161.4,286.479,161.4,284.223
			 M167.475,287.094c0.472-0.061,0.854-0.286,1.149-0.678c0.294-0.394,0.441-0.979,0.441-1.756c0-1.329-0.514-1.929-1.545-1.797
			c-0.51,0.064-0.921,0.288-1.239,0.673c-0.318,0.383-0.476,0.822-0.476,1.315c0,0.719,0.151,1.286,0.458,1.706
			C166.571,286.979,166.976,287.157,167.475,287.094"/>
		<polygon fill="#CFECFB" points="174.547,285.072 174.547,281.578 180.88,280.772 180.88,284.269 		"/>
		<path fill="#CFECFB" d="M191.919,287.269l-4.493,0.572v-8.674c0-1.056,0.021-2.021,0.067-2.901
			c-0.276,0.371-0.62,0.767-1.032,1.185l-1.86,1.772l-2.297-2.532l5.626-5.299l3.989-0.509V287.269z"/>
		<path fill="#CFECFB" d="M201.581,269.422c1.726-0.22,3.068-0.043,4.029,0.528c0.959,0.573,1.44,1.498,1.44,2.777
			c0,0.866-0.227,1.654-0.679,2.366s-1.166,1.371-2.146,1.982c1.211,0.533,2.063,1.109,2.562,1.729
			c0.495,0.623,0.744,1.327,0.744,2.12c0,1.457-0.525,2.651-1.579,3.584c-1.055,0.934-2.525,1.521-4.416,1.762
			c-1.929,0.245-3.403,0.041-4.428-0.608c-1.022-0.65-1.536-1.709-1.536-3.173c0-0.949,0.229-1.787,0.685-2.514
			c0.456-0.726,1.222-1.431,2.297-2.112c-0.866-0.473-1.499-1.019-1.898-1.637c-0.399-0.617-0.6-1.326-0.6-2.127
			c0-1.254,0.489-2.294,1.469-3.116C198.502,270.161,199.854,269.641,201.581,269.422 M199.631,281.795
			c0,0.464,0.163,0.814,0.493,1.053c0.33,0.237,0.785,0.321,1.367,0.246c1.315-0.165,1.972-0.733,1.972-1.697
			c0-0.365-0.144-0.707-0.431-1.026c-0.289-0.317-0.802-0.648-1.541-0.997c-0.664,0.436-1.142,0.85-1.429,1.241
			C199.773,281.007,199.631,281.399,199.631,281.795 M201.56,272.618c-0.382,0.047-0.703,0.199-0.966,0.452
			c-0.262,0.254-0.392,0.558-0.392,0.908c0,0.644,0.438,1.154,1.312,1.536c0.53-0.373,0.893-0.698,1.087-0.979
			c0.194-0.278,0.29-0.579,0.29-0.898c0-0.359-0.129-0.631-0.39-0.814C202.238,272.64,201.925,272.571,201.56,272.618"/>
		<path fill="#CFECFB" d="M226.799,282.836l-11.892,1.512v-2.914l4.001-4.555c1.144-1.341,1.891-2.253,2.241-2.733
			c0.352-0.481,0.595-0.888,0.735-1.22c0.137-0.331,0.207-0.668,0.207-1.013c0-0.426-0.14-0.744-0.415-0.955
			c-0.277-0.214-0.666-0.287-1.167-0.224c-0.514,0.066-1.035,0.281-1.562,0.643c-0.526,0.36-1.123,0.873-1.787,1.531l-2.433-2.536
			c0.845-0.862,1.553-1.492,2.129-1.89c0.576-0.398,1.202-0.727,1.879-0.984c0.674-0.258,1.436-0.439,2.278-0.547
			c1.062-0.136,2.01-0.069,2.844,0.197c0.832,0.27,1.479,0.719,1.937,1.351c0.461,0.634,0.691,1.381,0.691,2.239
			c0,0.643-0.081,1.247-0.242,1.812c-0.16,0.565-0.409,1.135-0.745,1.703c-0.336,0.569-0.784,1.18-1.339,1.834
			c-0.557,0.654-1.743,1.91-3.558,3.77v0.112l6.197-0.787V282.836z"/>
		<path fill="#CFECFB" d="M240.315,272.947c0,2.898-0.486,5.085-1.457,6.557c-0.973,1.474-2.459,2.335-4.463,2.59
			c-1.956,0.249-3.432-0.269-4.425-1.55c-0.994-1.281-1.491-3.312-1.491-6.093c0-2.913,0.485-5.112,1.457-6.596
			c0.971-1.483,2.457-2.351,4.459-2.605c1.952-0.248,3.427,0.271,4.424,1.56C239.815,268.101,240.315,270.145,240.315,272.947
			 M232.885,273.892c0,1.854,0.114,3.114,0.348,3.776c0.229,0.666,0.618,0.965,1.163,0.896c0.555-0.07,0.944-0.48,1.174-1.227
			c0.228-0.746,0.341-2.023,0.341-3.831c0-1.816-0.116-3.073-0.348-3.771c-0.232-0.7-0.62-1.014-1.167-0.944
			c-0.545,0.069-0.934,0.469-1.163,1.201C232.999,270.724,232.885,272.023,232.885,273.892"/>
		<path fill="#CFECFB" d="M251.679,279.672l-4.493,0.571v-8.674c0-1.055,0.021-2.021,0.066-2.899
			c-0.275,0.37-0.618,0.765-1.031,1.185l-1.86,1.771l-2.297-2.532l5.626-5.299l3.989-0.507V279.672z"/>
		<path fill="#CFECFB" d="M261.34,261.824c1.727-0.219,3.07-0.042,4.029,0.529c0.961,0.573,1.44,1.498,1.44,2.776
			c0,0.866-0.224,1.654-0.678,2.366c-0.452,0.713-1.167,1.372-2.146,1.981c1.209,0.535,2.063,1.11,2.561,1.732
			c0.497,0.62,0.746,1.326,0.746,2.118c0,1.457-0.527,2.652-1.581,3.586c-1.055,0.934-2.526,1.521-4.415,1.761
			c-1.93,0.244-3.404,0.041-4.428-0.608c-1.024-0.65-1.536-1.709-1.536-3.174c0-0.948,0.228-1.785,0.683-2.513
			c0.457-0.727,1.224-1.431,2.299-2.112c-0.866-0.474-1.5-1.02-1.899-1.637c-0.4-0.617-0.601-1.326-0.601-2.126
			c0-1.254,0.49-2.295,1.469-3.117C258.263,262.564,259.615,262.044,261.34,261.824 M259.392,274.197
			c0,0.465,0.163,0.815,0.491,1.053c0.33,0.238,0.786,0.322,1.37,0.247c1.314-0.167,1.97-0.733,1.97-1.697
			c0-0.365-0.143-0.707-0.431-1.025c-0.287-0.319-0.801-0.651-1.539-0.999c-0.666,0.437-1.143,0.851-1.431,1.242
			S259.392,273.803,259.392,274.197 M261.318,265.021c-0.382,0.049-0.703,0.198-0.964,0.452c-0.262,0.253-0.391,0.557-0.391,0.907
			c0,0.644,0.435,1.155,1.31,1.538c0.53-0.374,0.895-0.701,1.088-0.979c0.194-0.278,0.29-0.579,0.29-0.9
			c0-0.357-0.13-0.629-0.392-0.813C261.999,265.043,261.684,264.974,261.318,265.021"/>
	</g>
</g>
</svg>
